<mxfile host="app.diagrams.net" modified="2021-04-20T04:45:51.046Z" agent="5.0 (Windows NT 10.0; Win64; x64) AppleWebKit/537.36 (KHTML, like Gecko) Chrome/89.0.4389.90 Safari/537.36 Edg/89.0.774.63" etag="uUk7OYt9bQuoQa6mvXRD" version="14.4.4" type="github">
  <diagram id="yND1ezg2r0bC0WOIH1hr" name="Page-1">
    <mxGraphModel dx="1422" dy="869" grid="0" gridSize="10" guides="1" tooltips="1" connect="1" arrows="1" fold="1" page="0" pageScale="1" pageWidth="850" pageHeight="1100" math="0" shadow="0">
      <root>
        <mxCell id="0" />
        <mxCell id="1" parent="0" />
        <mxCell id="ta3PRd_e8hcslhCjti0d-1" value="" style="shape=image;verticalLabelPosition=bottom;labelBackgroundColor=#ffffff;verticalAlign=top;aspect=fixed;imageAspect=0;image=data:image/png,iVBORw0KGgoAAAANSUhEUgAAA6cAAAIHCAYAAABjdyoqAAAAAXNSR0IArs4c6QAAAFBlWElmTU0AKgAAAAgAAgESAAMAAAABAAEAAIdpAAQAAAABAAAAJgAAAAAAA6ABAAMAAAABAAEAAKACAAQAAAABAAADp6ADAAQAAAABAAACBwAAAADw6nQzAAABWWlUWHRYTUw6Y29tLmFkb2JlLnhtcAAAAAAAPHg6eG1wbWV0YSB4bWxuczp4PSJhZG9iZTpuczptZXRhLyIgeDp4bXB0az0iWE1QIENvcmUgNS40LjAiPgogICA8cmRmOlJERiB4bWxuczpyZGY9Imh0dHA6Ly93d3cudzMub3JnLzE5OTkvMDIvMjItcmRmLXN5bnRheC1ucyMiPgogICAgICA8cmRmOkRlc2NyaXB0aW9uIHJkZjphYm91dD0iIgogICAgICAgICAgICB4bWxuczp0aWZmPSJodHRwOi8vbnMuYWRvYmUuY29tL3RpZmYvMS4wLyI+CiAgICAgICAgIDx0aWZmOk9yaWVudGF0aW9uPjE8L3RpZmY6T3JpZW50YXRpb24+CiAgICAgIDwvcmRmOkRlc2NyaXB0aW9uPgogICA8L3JkZjpSREY+CjwveDp4bXBtZXRhPgpMwidZAABAAElEQVR4AeydB5xdZZn/nzs9U9LLkJ6QkEJCApoECOBSpAmS0KW5IpZd/O8qq6u4uiw2sAGr4KIiu4qgQISgEUPAgEAgIQiEBJJASM+kJ1Mz/d7/ec7kvXPmzLm9zC3fl8/hnPOW533e73sy9/7uW44vYAUhQAACEIAABCAAAQhAAAIQgAAE+pBAQR/WTdUQgAAEIAABCEAAAhCAAAQgAAGbAOKUBwECEIAABCAAAQhAAAIQgAAE+pwA4rTPuwAHIAABCEAAAhCAAAQgAAEIQABxyjMAAQhAAAIQgAAEIJASAgsXLhSfzye7du0KaV/TNV8ywt133x21rS996UuiRzpDLP6l0y/qgkCmEECcZkpP4AcEIAABCEAAAhDIUQKPPfaYZ8sWLVrkGU8kBCCQnwQQp/nZ77QaAhCAAAQgAAEIpIXAggUL5JZbbvGs6/bbbxdNJ0AAAhBQAohTngMIQAACEIAABCAAgZQROOOMM2TGjBniHiVdtWqVXaemewWdAqtTfs3hNQVX40z6zJkze5lx2wg3vdhZWPMZu3p229Z7bY+eTT4v25H8c9apPIwtPTvthWuH8cWU1SnSblZa3tmGcPacPnENgXQTQJymmzj1QQACEIAABCAAgTwjcOONN8rDDz/co9W///3vReO9goorHW0NBALB47nnnushujSPxpk8DzzwQI8RWk1/8cUXg+mPP/64jB492qu6XnE6DXnnzp3BspMmTepRtxa44oorZOnSpXaeL37xi3L++ef3sBPJP2dmFaInn3xysM6VK1cGk6Nph/pi/L322mttLkED1sWDDz4ot912mx0VjT1nWa4hkFYC1j9oAgQgAAEIQAACEIAABJJOwJqyG7jrrrtsu9YX3IAloOxrPZt7Tdd8zqBplkBzRtn3powmeOWxRGLQljOvMWSN4AYskWrfal49oglaxumj2jHt0vLqq9bnDJH8c+b1Km/SI7XD7YuWc9ZtWEdrz+TjDIG+IMDIqfWvlwABCEAAAhCAAAQgkFoCOrpoNkbSs96PGjWqV6Vmuu+8efN6pJl7HSEMlWfs2LF2GZOuI6Vmuque161b18NmuBvn1Fcdmdy0aVOP7GPGjAnemxFZMxXX1G98NhmNf+benDWfTn1WH53Tn42dSO1w+qI2le0rr7ximzes9SZae3ZB/geBPiCAOO0D6FQJAQhAAAIQgAAE8o3A1VdfHZx2q9NM9T7VwRr5CU7NNdeXX355xGp1faZ7SnDEQglmWLt2rT01V4WwilQjdNWs8d15DteO+fPn21N5tay2w83aacdch7OndggQSAcBxGk6KFMHBCAAAQhAAAIQyHMCOjqoO/PqmkcN7lFFg8eMQppRPhNv7rWcyeMUcJpPhZgGk27K2JFR/k/L6Ajrk08+GSyxY8eO4HU0F6b+UP6FsqEjySoWlZOOeBo7sbZDhaa2QcstXrw4yDpee6H8JR4CySaAOE02UexBAAIQgAAEIAABCHgS0M167rnnnuDmPF6ZVKDptFTdIMgZbrrpJrHWedpRmkcFnHMTIp0Oq0JMg0l32zDC2M4U4n9uAacCM9SrcEKYCNYfyj93ORWRTgGqU4h1qm4i7VCGykzPJiRiz9jgDIFUEkCcppIutiEAAQhAAAIQgAAEggTM1FFzDia4LnS9pwpR53pR3dnXKS7NyKbJs2LFiqB4VXOargLWpOtZp7tGCirgtG4VtlpGBabu9BtriOSf256pT+s855xzxDCKtx06lVdHT91TeuO15/aXewikgoDPmjqgO3oRIAABCEAAAhCAAAQgAAEIQAACfUaAkdM+Q0/FEIAABCAAAQhAAAIQgAAEIGAIIE4NCc4QgAAEIAABCEAAAhCAAAQg0GcEEKd9hp6KIQABCEAAAhCAAAQgAAEIQMAQQJwaEpwhAAEIQAACEIAABCAAAQhAoM8IIE77DD0VQwACEIAABCAAAQhAAAIQgIAhgDg1JDhDAAIQgAAEIAABCEAAAhCAQJ8RQJz2GXoqhgAEIAABCEAAAhCAAAQgAAFDoMhccIYABCAAAQhAAAIQgEA8BDo7O6WtrS2eopSBAAQgYBMoKSkRxCkPAwQgAAEIQAACEIBAQgQCgYCoQCVAAAIQiJeA/h1hWm+89CgHAQhAAAIQgAAEIAABCEAAAkkjgDhNGkoMQQACEIAABCAAAQhAAAIQgEC8BBCn8ZKjHAQgAAEIQAACEIAABCAAAQgkjQDiNGkoMQQBCEAAAhCAAAQgAAEIQAAC8RJAnMZLjnIQgAAEIAABCEAAAhCAAAQgkDQCiNOkocQQBCAAAQhAAAIQgAAEIAABCMRLAHEaLznKQQACEIAABCAAAQhAAAIQgEDSCCBOk4YSQxCAAAQgAAEIQAACEIAABCAQLwHEabzkKAcBCEAAAhCAAAQgAAEIQAACSSOAOE0aSgxBAAIQgAAEIAABCEAAAhCAQLwEEKfxkqMcBCAAAQhAAAIQgAAEIAABCCSNAOI0aSgxBAEIQAACEIAABCAAAQhAAALxEkCcxkuOchCAAAQgAAEIQAACEIAABCCQNAKI06ShxBAEIAABCEAAAhCAAAQgAAEIxEsAcRovOcpBAAIQgAAEIAABCEAAAhCAQNIIIE6ThhJDEIAABCAAAQhAAAIQgAAEIBAvAcRpvOQoBwEIQAACEIAABCAAAQhAAAJJI4A4TRpKDEEAAhCAAAQgAAEIQAACEIBAvAQQp/GSoxwEIAABCEAAAhCAAAQgAAEIJI0A4jRpKDEEAQhAAAIQgAAEIAABCEAAAvESQJzGS45yEIAABCAAAQhAAAIQgAAEIJA0AojTpKHEEAQgAAEIQAACEIAABCAAAQjESwBxGi85ykEAAhCAAAQgAAEIQAACEIBA0gggTpOGEkMQgAAEIAABCEAAAhCAAAQgEC8BxGm85CgHAQhAAAIQgAAEIAABCEAAAkkjgDhNGkoMQQACEIAABCAAAQhAAAIQgEC8BBCn8ZKjHAQgAAEIQAACEIAABCAAAQgkjQDiNGkoMQQBCEAAAhCAAAQgAAEIQAAC8RJAnMZLjnIQgAAEIAABCEAAAhCAAAQgkDQCiNOkocQQBCAAAQhAAAIQgAAEIAABCMRLAHEaLznKQQACEIAABCAAAQhAAAIQgEDSCCBOk4YSQxCAAAQgAAEIQAACEIAABCAQLwHEabzkKAcBCEAAAhCAAAQgAAEIQAACSSOAOE0aSgxBAAIQgAAEIAABCEAAAhCAQLwEEKfxkqMcBCAAAQhAAAIQgAAEPAhc89heGfTdLaJnAgQgED0BX8AK0WcnJwQgAAEIQAACEIAABHoS6OjokJaWlp6ReXh338pa+cayfdLh7/56XVTgk++cO1xuPnlgHhKhyRCInkBZWZkgTqPnRU4IQAACEIAABCAAAQ8C+S5OX93eIlc+sl1qj7R70OmKGlheLI9dM1ZOGVsWMg8JEMhnAojTfO592g4BCEAAAhCAAASSRCBfxen2wx1yze+3yZqdDVGTnDt+gPzv5WNk7KCiqMuQEQL5QABxmg+9TBshAAEIQAACEIBAignkozi95pGtsmTtAfFaITewokw+PmOQ/HHdYalt6j3d2efzyRUnDZdfXTE2xT2DeQhkDwHEafb0FZ5CAAIQgAAEIACBjCWQT+L0vlf2yzeWbBFtszsUFRXJNR+ulvsu7RadNz+xXR55fY9n/oqqMvm3i46Vr5w4wG2KewjkHQHEad51OQ2GAAQgAAEIQAACySeQD+L01W1NcuX/rpfahiO9APp8BXLalGFy/+UTrem6xb3Stx9ul88v2iwvbdwn1lCrnT529miZed50Ke5XJHU7auULVR1y7hjWo/aCl4aIp61Z2c80+hKq6R8HBeREui8hhojThPBRGAIQgAAEIAABCEBACeSyON1+uE2u+c1GWbPFEpYeoXpwf/nNDdPllPEVHqk9o17d2iRfWF4jo+ZPlAEje4+WNry1U34yo9wSuCU9C3KXUgJf2NEpbzV377AcT2U3DikQPQjxE1Bxykrs+PlREgIQgAAEIAABCEAghwlc8+sNsuSN7dZgp79XK/v16ye3XXyc3HzaMb3SvCL2+32yrnqITL9ihFeybH9jm2z46zsyY1GLXDFvvPzqmuM88xGZfAIBa4q2v613H8dSU6BTZRXiNBZmXnkRp15UiIMABCAAAQhAAAIQyFsC971UI9/4wzrpaG/rxcBXUCDXnz5Z7rtycq80r4gma0BuWXuJPNNWInrtDgc275cNz62VA5u7R2YfW/GeLF69Vb516Qy5+fSR7iLcJ5mAX8Vpe2dCVgOdCNOEAB4tjDhNBkVsQAACEIAABCAAAQhkPYFXtzTIlfevltq6Os+2zJo0Wh658QQZO7jUM90d+feOInm4tVR01NQdyq2oa0tbZPyYArkm4JMDnT3fkdrW3C5fe3iV3L10gDx00xw5ZUKV2wT3ySLQ0SmBtp78jemzhpXL9WOqpKHDLw/taJDVh3vvvqx5u0ZOTSnO8RLwWdtfe/yGE685ykEAAhCAAAQgAAEI5BuBXFlzWnXLCyJHDvXqvoEDBshjn58btUDc5i+Qh1tKZX1nYS9bGrGwpE3Os44Kh2Z9Zn2t3PR/f/cUxiVVQ+T5fztFTqhmLaon0AQjP/f2IXmjrvco+dkjKuTek3pO2z7nha2yq7n3Ts2fGVspnx1XmaAn+V2cNaf53f+0HgIQgAAEIAABCEDASWDIBJGKoSK1O0Tam6WouFS+c8VsufmMUc5cIa912u4jrWXyYrv35MSTijrkutJWGVbQe2zovGkDZcf3z5YfPLdT7nhqjTWluFWsrXxFBo6RtrIqqWtNbE1kSKdJEHvNaXvvkdMbxvXetOrSYZXy3x/s70Ut4E9sWnAvg3ka4f0vJ09h0GwIQAACEIAABCAAgTwnYAlBqZ4ucwY1y/J/ntoLho6GvtxeHJyq+yFLcJ5W1C7PWOtKdW2p17rSsQV+ua6sVaYVRhYw/37OaNHjrJ9tsKaQWuKUkHIC9ppTj2m99a29R0iPfb1ATny5QGomdcjuY7v7M9DJjwfJ6CjEaTIoYgMCEIAABCAAAQhAIKcInDOjuld7XmgpkPub9Ouzjnx2jX6+be3Q+tuCMgkUForPMU1XC+u60oUlrXJ+Se9ROU0PF7T+1S95r30NV4602AkErDWnfo+R0wfX75FzRvYPGmy0Rq9ffLlWxr9bZB9NVX7ZNbFd3p/VKoEJ3UI1WMBx8VhtQH560BERx+Vp1tuK7qh2PWRx2MnkIojTTO4dfIMABCAAAQhAAAIQyAgCWyx9+dNDKkh7r01U6VloidPS8rKgr+dZglSFqXNdaTCRi4wi4G/XV8n0/gHh1Z2H5BPPvCv/GKiWwhqffLdsm2w9rUUqZhXKcWv7yaitJXLcmlL7qP1rp7x28RGZeU6Z9KvqvXNvo7WhUiDBHYEb2lSYFmcUu2Q7gzhNNlHsQQACEIAABCAAAQjkHIE/1nVKe5h1nyptikqK5XhrI9/PlrV4rivNOSgpbNAzzzwjs2bNkurq3iPYya420KmvkuktTrWeV3YclPo322TmW1XSeH6r+I9pl4aydvn7nBbrEBm+u0QmbCqXiTvKZdn9DfZx3CmlMuXUUpl1bve07ECnNTrrIYBjaUugWDfYQpzGwoy8EIAABCAAAQhAAAIQyDkCu460W+I0/NTN9rY28ZV2rT09rbhdxllrTQnxEdi7d68sW7ZMRowYkXKRGmrk1Hi+d0iTzJQqGbCvUPYM6Sli9X6PlT77ulHykfrBsvHVVnnv6PHszxttkTpnQbkE+vlDCmBTT6Szv7P3RlqRymRbOiOn2dZj+AsBCEAAAhCAAAQgkHYCHdbIWrvHBjlORwp8BfbrY3TTpKVtxfboqU7tPb2498Y6znJchyaQDpFqrzkNM6pZf/S1thX1vpCjn77STpl1Xj/7qN3TKRtfaZXXnjwia5Y120fhkAKZNDMgO2b5pHlQz/Z+bcoQuWFs19rW5/Ydkf94Z7/9XtWeuaxVzj11sTs5J+4RpznRjTQCAhCAAAQgAAEIQCCVBE6pKJTXDx4JWUVBQYE9rdeZYb/fJ79oKZNn2vzymX4tjKQ64cR4nUqR+snp1TJ3ePh3lNY9LTKjo0pOnnVUqbr8P2fs4GDMwOpCmXdpuX3s+aBD3rYE6uqlR2TqC2IdAdk/VmT7CX7ZfVxALp7cPyhM1cA5w8tlQ12l3Pt+792T/B25vRmSth9xqhQIEIAABCAAAQhAAAIQCEPg/CGl8tv39snuZu/hqyljR8jQYp8c8JjJu81fIHccKZfPWGtR9dUzhPgJpEKknjNhqOgRLvxm5iHZvlbk/80ZHy5br7TqY4uk+p+qZMt5nfLHZxpk3LoiGbmpQIZt79o06cO3WmtIT+hZbO6gfp4jtIEOXXOa2wFxmtv9S+sgAAEIQAACEIAABJJAoMrajOZnJx0j33xtm7y+ryFosaqkSK47bpj80zSdltlkv+f07x1F1mhpiWy3RKkJ+v7Te5rLbIF6Rh9M892zZ49xJSvPgUDAelVP98hhKkRqODADq4sscdouOmVXR0ZjDfoe1F3jWu2jqMUn49cXy+wXS8W/xlrHfFFPazsbWzzFqb8996Vb7rewZ19zBwEIQAACEIAABCAAgbgIjKoslQfPOk7WH2iUVTW1MrqqTOaOHCD9S7t3UNVXx6j41ONFS0w83FomRxz72NxrDa2+sb9GCq3Nk6YPrZSzx4cfsYvLUY9CurlQNgcjTPtKpI6Y2CWb6vbGK06736U68r1Smfxm1zOz8rl6mXpVhcycZL3E1ArrDx+R21/bam2e1HvzrUBH93OWzX0ZznfEaTg6pEEAAhCAAAQgAAEIQMBFYJolKvWIFFSgjis8Ir+wRkx1FLWzo1MKiotk5cjxdtEV1v+frQ3I5ys7ZHyRQ8FGMky6uEVqqpHo9FwNW99uk3GzSmKuTkdOR75XICeurJKKxkJpLw7IupMa5b3jj8gTL+2T6e9USP+SQlm5pz6k7UBH7k8JR5yG7H4SIAABCEAAAhCAAAQgkBgBfZ3M18uPyOcOlkhra1svY++3itzW7JP7RgSksqB72mqvjAlGnHvuuQlaSG9x90ivW4yakdR0vGpGWz786MjpXmuDo1jDtjVtUv9zkdM+GChtlihdO6teNk5rlPbSowuUrWXM6/bWRjSruwrnekCc5noP0z4IQAACEIAABCAAgT4lEPAHpL6hKaQPh62UP9UVyCcGxb6WMaRRV0J1dbUrJjtvUy1KG6x3iS5q6F4r3E2pUArKC2Tz7k7539rwPyKcVh6QydbgqorSF3/bJNus0VYNH0xolLUzDkuTNVJuh96/VXTFh/i/n5HTEGSIhgAEIAABCEAAAhCAAASiIrC51W+9IzW8EnmzoTCl4jQqRzM4U6pFqWn6X+oD8uAB7x2Z54wskMGbOuTB/d7pxsYaa/erUxc3yXuvWsPiVjjho/1ky+xaeWVLTVeW8MW78nj8v9JLM3vky+YoRk6zuffwHQIQgAAEIAABCEAg4wm8au2I1N4WXpF0WNM9CaEJpGv6boO1EZG/zXvq7sFjC21xWrGlVRpG9VaK/Q75ZdIzrTJ0dbu8ZzVl7Mxi+fiXBxzd3be/nFyjOzrHH6YN6do0KX4LmV8ScZr5fYSHEIAABCAAAQhAAAJZSGC/3ye/bCmTNYFOa+T0UNgWDKtK3ZTesBVneGK6RKnBoBsX+UP8kHCkqusHhKptbVI3rLu/iqwfH6b/uV3G/L1rTWjrpEK56bP9e22cNG/kQFMN5xAEEKchwBANAQhAAAIQgAAEIACBeAjoO00Xt5XK0rauV3+UlBWKz3pPZ3N96HWnl00dEE9VOVsm3aLUgAz4u1/5YuLM2TfEJ/OvGCCzZxbK0oo2eXN3i0xc6ZcJr/ilpEXkwHifvHdmgS1Kx02LfUdfU08+nxGn+dz7tB0CEIAABCAAAQhAIKkEVJCqMFWB6gwjJ42T7avXSqOHQL39w2PkuKpSZ/a8vz7vvPP6hEGokdOqogL58cJRMu1oP11teffgf+6R95Y3yRFrtu47Hw3I9tna6X4Z09F7ym+fNCYLK0WcZmGn4TIEIAABCEAAAhCAQGoJrN0bfgMjd+3rOwvl4ZZS2Wa9z9Qdyq3NXRdWdsr5502WX6/dJc9tO2hnmTakUm6YMVJGV5X1KFLb7JdY6+9hgJu4CQQ6vUdOz6oeEBSmxvglNw+Vq0vrZPsJ3a+E0bQA4tQgivmMOI0ZGQUgAAEIQAACEIAABHKdwJL3mmXGfbvkznMGy0VT+oVsrq4rfbi1VP7e4f21+vTiDrm2tEUqjr595JMzR4keocLPXquXO16qk9qWo4InVEbiU0Ig5Mipx9tj9pV1yNap1o68rt8x/B3d61FT4mQOG/X+V5TDDaZpEIAABCAAAQhAAAIQ8CIwoLRA6qzXvpiwrbZDPrFon5w+rswSqYPkhOrudYQ6bXdZe4k80dodZ8rpeWphp1xX1irjCrrtOdPd1y9ta5GvPXtY3g4xYqu+EVJPINSa08c37ZN/mT5Cqoq7heezOw6Lv733LsyBjq61xqn3NvdqQJzmXp/SIghAAAIQgAAEIACBOAisu3mUPWr5s9X1PUqrcJz/q91y3axKuePsQfJ2UYk80lrWa12pFhpaEJDrSlvlQ0XeryPpYdi6UQH8tWcPiY7UeoXTxpbK/RcPlXED+druxSfZcaFGTuusHXyvXvqO3Dj9GBldWSqLNu2XRR/s96ze3x5d33sWzvNInvI8fwBoPgQgAAEIQAACEIBAF4GB/Qrk++cOkmtPqJCvWoLx5e3WlE1HWHowIDu3F8nAkT3XiGoWXVd6XnGbnFfSFpzC6yja61LXlf7P6w3yvRdre6VpxNgBRZYoHWKP2npmIDI1BKw1p4EQr5J5Z2+d/Jt1RAqBDsRpJEah0hGnocgQDwEIQAACEIAABCCQlwR0+u5frq+WJRubbZF6IOCTqXOHy9jp3u+p1HWlC0taZZg1ahpNePjtRnsKr9e6Up2+e+vpA+TmedYWsIS0E7BHTj2m6sbiCOI0Flo98yJOe/LgDgIQgAAEIAABCEAAAjYB3Qjpoimj5MvrO2TnsKpeVOr2t4jvvUNy8uwyGeZYj9or49EInR6smx3p2Sv885z+tjDVEVxC3xCwd+sNMXIarUf+9s5os5LPRcB6H7D1RmACBCAAAQhAAAIQgEDeEzhw4IBUVVVJaWls79zssKYxtrR4C65cgbqmzi/37CuQjupKabc2TVr70m7Z/m73lFyzHtVLWOq60jtfrpPfrmn0xMG6Uk8sfRK5s75ZvvvKB9LQFv/U3IXHjZDLph7TJ/5nc6VlZWWCOM3mHsR3CEAAAhCAAAQgkEQCq1evljVr1sisWbPkhBNOiFqk5oM4NZgX7+qQX7x0SF76oPcGRgPLCuSf53aNfpr8OlKqr4fxmsLLulJDiTMERBCnPAUQgAAEIAABCEAAAkECKk710FBSUhK1SM0ncWpg6SiovvrF+eoZk6Y76157QqXo2lIdNXUH1pW6iXAPAcQpzwAEIAABCEAAAhCAgIOAU5ya6GhEaj6KU+WjO+7qa2d0dDTawLrSaEmRL98IMHKabz1OeyEAAQhAAAIQgEAYAl7i1GQPJ1LzVZwaNjo6+tVlh+TP7/ee6mvysK7UkOAMAW8CiFNvLsRCAAIQgAAEIACBvCTgFqe6b6bPZ73A0xG8RGq+i1ODR3fh/fyfDsr2uu6pvKwrNXQ4QyA8AcRpeD6kQgACEIBAmgkcOXJEli1bluZaqQ4CEDAEGhoaRA93iCRSCwsLc363XjeTcPf3raq3pvs2yD/PqeJ9peFAkQYBBwHEqQMGlxCAAAQg0PcE9EvxQw891PeO4AEEIBA1gcrKSrn44ouluLg46jJkhAAEIOAmoOK0yB3JPQQgAAEIQCATCAwcOFDKy8szwRV8gEDeEAg3cqoQnFN8ndN7GTnNm0eEhkIgpQQQpynFi3EIQAACEIiXwEknnSRTp06NtzjlIACBOAh4rTlVM6FEaWlpqV2LrjklQAACEEiUAOI0UYKUhwAEIAABCEAAAjlIwL3O1DlSakRpDjabJkEAAn1IAHHah/CpGgIQgAAEIAABCGQqATNaiijN1B7CLwjkHgHEae71KS2CAAQgAAEIQAACCRNAlCaMEAMQgECMBBCnMQIjOwQgAAEIQAACEMhlAojSXO5d2gaBzCaAOM3s/sE7CEAAAhCAAAQgkDYCEyZMkBNOOEFYU5o25FQEAQg4CCBOHTC4hAAEIAABCEAAAvlMYOjQofncfNoOAQj0MYGCPq6f6iEAAQhAAAIQgAAEIAABCEAAAoI45SGAAAQgAAEIQAACEIAABCAAgT4ngDjt8y7AAQhAAAIQgAAEIAABCEAAAhBAnPIMQAACEIAABCAAAQhAAAIQgECfE0Cc9nkX4AAEIAABCEAAAhCAQLQE5s2bJ3pkYvja174mVVVVweMTn/hEJrqZ1T5lcv8bsKn0UZ8xPRIN5llN1E6yyyNOk00UexCAAAQgAAEIQAACKSGwevXqoF3ndTCyDy9UiG7btk0aGhqCx7hx4/rQo9yr2tnnzutMaqnTL+d1Jvmovtx55532c5ppfvEqmUzrEfyBAAQgAAEIQAACEPAk8Ic//EGuv/562blzp+j1nDlzPPOlO7KmpkaWLFkiGzdu7FG1CgBC8ghkav87W5gNPjr9zbRrRk4zrUfwBwIQgAAEIAABCEDAk8B9990nl156qVx22WWi186wePHi4HRa59RaM31RBaQJOqKleZxBp2I6bZi0e++9t4ddpx2TZ+TIkfbla6+9ZqJ6nHVU1T0VU+2aab+mbj0b39316L1J07PmdQa1pTZNe915TJuNDbf9aNrprK8vrjO1/50swvmo+ZLR16a+SM9VuD7X58Q8k+HymbrSdUacpos09UAAAhCAAAQgAAEIxE1AheP06dNFhaCOmOq1xpmwYMGC4HRanVp7xx132HliGb3UUVkd/dTyGvTL+4oVK4J2H3roIZkyZYqpssdZ69Py5gu/M/Gqq66S559/3hll29V4E7Tsk08+add18803y8KFC02SfX7iiSeCvql/EydO7FXXrbfeKieffHLQX82jAkaF6FlnnRUsv3z58h62Y2lnj4JpvMn0/lcUkXw0uJLR12or3HMVqc+NL9HmM/lTfUacppow9iEAAQhAAAIQgAAEEibw6KOP2uLPGNIv+BrnFfQLtwo1HQ2MJajANKOgWk5HwX784x8HTagAdotik/iFL3zBFn9aRkcnnXVruXfffVd0hEqD+qfTgDXeBGfdOjKs+Z1B7Tt9U2Gia1yd4aKLLuphU33XetasWWNnM+VV3JtrTYilnc760nmd6f2vLKL1MRl9rfWFe6527dqlWYL97O5zO9H6X7T5TP5UnxGnqSaMfQhAAAIQgAAEIACBhAgYMadTek3Q6ZEqvDTNHXTUUQVArGtSR48eHTRlhKSOlJqpsHp2i8ZgAetCBZ+OaurIpIpjM21X8+ho6KpVq+zsOgqq987grHvUqFF2krttzqm3Ks43b97sNCHz58/vcW8E6NChQ21Rrf47R5s1czzt7FFJGm6yof9j8TEZfW2wh3quzOwCrz43ZfUcbT5nmVResyFSKuliGwIQgAAEIAABCEAgYQIq5jR4TanVNB1VNEGnqOp0VmecSYvnbKb4xlJWv/Dr9GD1V8Wf3utoqPqkh04Vdk7pjca2inFtl/FHRaYK8GiDCmMVUIah+mfEq9owdqO1l8582dD/sfgYiV0sfR3uuYrU58aPaPOZ/Kk8M3KaSrrYhgAEIAABCEAAAhBImICu9dRDBZTzUHGm8SaoEHRPUTVpZvqi3juvTbr7bEYvzciiOz3SvVP4aV4VqGZqr3tKbyRb6oOW/d3vfhfMqjsWu4M7zviudWswI7s6/deIqUTb6fYhFffZ0P/R+hiJT7R9bexEeq68+tyUdZ6jzecsk4prxGkqqGITAhCAAAQgAAEIQCApBMyX9blz5/ayp9N8jeDTRN30R0WCWxiqGNNXfJgQzYij2tByatMZvDY80hFJd7xZc2qEodrQKZh33XVXrym9Tvte124BqfXptGF3UGFuBKmm6SittlXjnPE6HdhMLY2lne760nGfDf0fi4+RmEXb1047Xs9VuD53lo02n7NMKq8Rp6mki20IQAACEIAABCAAgYQIqJhTkegWnGrUCCvNY8ShrsV0rhHVeN0YyGxUpGlews7LSR2p1Lqd9nQ3XHdQP5z2Nb+KZPdUWZ2CqaOmeo4lqH0VmSqU1bauqVX77qB5lIXx98wzzwxObzZlNU3jnZsxRdtOd33puM+G/o/Wx2h4RdvXTluhnqtwfe4sH20+Z5lUXfsCVkiVcexCAAIQgAAEYiGgX+TMFy79sJw6dWosxckLAQj0EYGOjg5paWnpo9qzp1qzTtRsjJRMz3XzJd0QKVlrbZPpG7ZSSyCVz1VqPe9pvaysTHJiQ6TaZr9M+MFGqW3x92xhCu4umWbtcnbD2BRYxiQEIAABCEAAAhCAQC4T0JFNHdklQCCZBHLpucoJcfrW7mZbmFYUF0qldaQqHGput+rpTJV57EIAAhCAAAQgAAEI5CABnVqs0351bSAjmznYwX3UpFx8rnJiWu8Lm5vkzF9ulVlDq6yjf8oej2e27Zep1UXywmcnpKwODEMAAhDIZwJM683n3qft2UyAab3Z3Hv4DoHMIKDTetkQKTP6Ai8gAAEIQAACEIAABCAAAQjkNYGcmNbr1YOHWtplydZ9XkkJxe3d0ia+W9/pYeO2s4fJf50zvEccNxCAAAQgAAEIQAACEIAABCAQPYGcFadt/q7NkaorSqWsOHUDxFtrm0WnFRMgAAEIQAACEIAABCAAAQhAIH4COStODZILJw+VCYPKzW3Sz998/v2k28QgBCAAAQhAAAIQgEBqCcybN8+uIBWvdTHvXL3zzjvjaoTZ6Mb9ntS4jFEoJAHD2WTQd9rqO1+THUw99GdksqkbUoxcNzkgAAEIQAACEIAABCCQdgKrV68O1um8Dkam8ULfUanvKHUGFbUIGSeR5F8r823bttmclbUe48aNS35FlkX6M3qsOT9y6oXiSGuHdHYm9kqYogKfNHZ4WScOAhCAAAQgAAEIQCCTCfzhD3+w3ze6c+dO0es5c+Zksrv4lmQCNTU1smTJEtm4cWMPy/GOdPcwwk1CBPJy5PRAfZvsqetM6Nh5uEMeeadGJJAQfwpDAAIQgAAEIAABCKSZgL5z9NJLL5XLLrvMfv+ou3qd8qsjmnquqqqyDxU0Jui1idezmSJs0p1nHaEz03xN/L333muPlmra9ddfbwsltWPy6dlcmzLqj7NOvdegI7/OeKefpiznngRGjhxpR7z22ms9Exx32kehuJrnw6SH6mPzXMTSn8aFUPXnen/n5cipNXBqh19/cqDp/5jO63e3y53LmqShtWv0tbkdhRoTQDJDAAIQgAAEIACBPiKgom769OmiAkUPvda4BQsW9PBIRaOOrGkeFRcLFy4Usz71iSeeCKZpISNOvEberrrqKrnjjjt62F6xYoVovNapdT/66KNh1zqqULn11luDU31VgKqw0vNZZ50V9KWvpyj3aGSG32ifaB/ffPPN9rRbp7va32bKr8ZrH02ZMiXIX+Ocz4emu/v4oYcesvtM87pDqP40+ULVr89jrvd3Xo6cmo5Pytkn8mZNi2zc35YUcxiBAAQgAAEIQAACEEgdARWCKixM0GuNcwcVG2aETUdY33333WCWL3zhC8E0jVShqWLGK6gA1bJGOKqg1CmlbjHsVdbEqTBdvny5ubXr1vK7du2y44yfOj3ZXAczc+FJQPtQxZ6OousIqApGEzTuxz/+sbm1+8r8iGEinc+HVx9rn4fq41D9aWyHqv+RRx6xs5g+zsX+RpyapyCBc7s/IKfdvxmBmgBDikIAAhCAAAQgAIFUEzDCUKf0mqBTL1UsapozjB49Ong7atQo+9qZxzntUgXu5s2bg/ndFzo65xx11ftogxG1XutiNU5Fk4orHb0jxEZARZ5uhKTCXwWjjoAb3jpSaqbt6tn544TW4nw+9D7aPjb2vfpT7Zh0r/onTZqU8/2NONWnIAnhwJFOW6C+s7c1CdYwAQEIQAACEIAABCCQbAI6HVeD84u/TpPUYNLsmwj/U0GrU3PNLq86hTNc0JFXk0fLnXzyyeGyx5SmoldHAFUgq4hyCuiYDOVxZhWKylB/pFi/fr1NwvSt8xxqJFQLaJ86+1j7PJHgrNdca/253t+I00SeGldZFain/3yzIFBdYLiFAAQgAAEIQAACGUBAxYMe5su+OesUTSMsIrmpI1s6iuZ8H6bu+hsuqPgxU3tjndLrNWrrrsuMAOp7OmMR2W47+XxvpsoOHTrUxmBGMKNl4pzaq30camQ0Un+a9HD153J/56U49QcCoke8QUuGKn+42Y9AjRcs5SAAAQhAAAIQgECKCBhROXfu3F416DRfIx57Jboi3OJBRyp1SmikoNM+77rrLnv6pzuviplQQYWIltUNmUzQOnUar7bJKWJ0arF7uqkpw7mbgPLTTYecwaw5vfDCC0VFvhlRN3nc+U2886z9pGtZ9RwqhOtPLaPpoerPh/7OS3Haaa0R1SPeoCXDlUegxkuWchCAAAQgAAEIQCA1BFQY6pd+/fLvDkYQaJ5IQfPqSKuKF51Gq6IxmlFXneapItQ93VNH3My60VACSHcBPvPMM4NrIHVashHZxg/1RfOEm3oaqW35kq59aDZCUm56mBF1ZaCj4vqsmDQ9RzMVW/tWf+Rw97Gba7j+jFR/rve3L2AFN7Bsu39hc5Oc+cutMmtolXX0t93fc6RVlm0/IDfOHiUTBpX3aNLbOxrs+8c+PaRHfLQ362ra5Vt/qZc/btknrZ3+kMUG9SuQ5TdNkNkjy0LmIQECEIAABLoJ6BQ78yVPP4CnTp3ancgVBCCQsQQ6OjqkpaUlY/3LBMfM60bMxkiZ4BM+QCCTCJSVlUl+jpxaerwzIU3eVX5QWWHY/tQR1DN/ucV+1UzYjCRCAAIQgAAEIAABCOQ0AR1tdb7CJqcbS+MgECeB/BSnCU7rLS/x2dN6TxhaKT7rv3ChtsVag3r/FlmxjV8Tw3EiDQIQgAAEIAABCOQiAZ2qq9NCdcqtrkckQAACoQkUhU7K3ZTOBCcyTxxaLBce30/+tE7kY+OHRQXqp8sbZf6nmN4bFSwyQQACEIAABCAAgRwhoOsL9SBAAAKRCeSpOE1QnVpcPzu/UiYMKZS3rfWnexs6w5LefLBD6lv9dt4TRhaHzeuVeOTIETl8+LBXUk7EFRUVyYgRI3KiLTQCAhCAAAQgAAEIQAACEIiPQH6K0wR26nVi/ujUfqJHpPDlxYdkrSVi4917avv27bJ8+fJI1WRtemVlpdxwww1Z6z+OQwACEIAABCAAAQhAAAKJE8hPcZrQZkixQ9d3oia2AVPsdVICAhCAAAQgAAEIQAACEIBANhFAnKaht3SgVsVpvJOJx44dK5dcckkaPE1vFW+88Ybs2LEjvZVSGwQgAAEIQAACEIAABCCQkQTyUpx2eEzr/cYfG2TH4fBrR6PtQd3N99sXV8nQyq7NkDssYap1xjtgW15eLnrkWtiwYUOuNYn2QAACEIAABCAAAWlqapJNmzbZJCZNmiQVFRVQySMCra2tYr7njhkzRgYPHpxHrU+sqXkpTr2m2CZLmGp3HGkLyP5Gf1Ccmmm98Y+dJtbJlIYABCAAAQhAAAIQSB+BhoYGWbNmjV2hbvqIOE0f+0yoqb29Pdj/2veI0+h7BXF6lNWCWWWyfk9H9OTC5BxmjZhOq+5G2y1OwxQiCQIQgAAEIAABCEAAAhCAQB4T6FZQeQSh02Na78LZZbIwRQzsNacJTOtNkVuYhQAEIAABCEAAAhCAAAQgkDEEckqcflB3RPYcabPhtnX6Q0L2mtarmXXk1OcLWSzqhKkjemLV+kLVGbVRMkIAAhCAAAQgAAEIQAACEMhhAj1VVJY29B8mVsis6jJZs6dFGtsjb2rU6bFtbio3RLJHTq06ParNUuK4DQEIQAACEIAABCAAAQhAILkEckKcKpK3/vXYHmRe2NwkZ/5ya484c+M1rTflGyLZ03qRp6YPOEMAAhCAAAQgAAEIQAACEHASyBlx6mxUpGuvKbb/cmaFbD8UedQ1km1N11fJsCFSNKTIAwEIQAACEIAABCAAAQhAoItAzovTv2w6IGVFhT36u8BjAPNDY4tFj1QEnUas7zr1qDYV1WETAhCAAAQgAAEIQAACEIBA1hHIWXE6flCJfGRCuWeHbDvQWybqu0m3H45+5NS96ZFnRUcj7Q2RdOFp72rDFSMNAhCAAAQgAAEIQAACEIBA3hDIYXFaLC98doJnR4797ge94m9ZVCfN7b2iQ0acdmyJfOY0b/HrLtT9nlPUqZsN9xCAAAQgAAEIQAACEIAABJRAzorTcN3rteY0FmGqtpuskdZoQ7c4jbYE+SAAAQhAAAIQgAAEIAABCOQXgfwUpzrF1hVi3RDp9EklLguhb+1Xydi79YbOQwoEIAABCEAAAhCAAAQgAIF8JpCf4tTanMgdUrshUkC8RmvdPnAPAQhAAAIQgAAEIAABCGQXgbbOw7K76SnZ3fgnOdK+XVo79suAeYcl0FkumwLD5UDNJBlZ+XGprvi4lBQOyq7GpdlbxGkagHdP6+0titNQPVVAAAIQgAAEIAABCEAAAkkmUN/2jrx38Aeyp2mJ+ANtPaz7CkR8BY3SJo2yr2mzdSyTAt8tcowlUicP/rL0Lzm+R35uugjkpzj1p7f7/VZ9ndbhMWCbXkeoDQIQgAAEIAABCEAAAhBIiEBtyxvy3uHvy57Gp2OyowJ2V8Mi+xhRcaFMG/qfiFQXwbwUp/rO0XSGTusdMrznNJ3EqQsCEIAABCAAAQhAAALJJ9DUtln+vudT0tS+OSHje5uelsa2DXLyyCelomRiQrZyqbA14Jx/wX7vaBoFqr0hklVfeiVx/vUrLYYABCAAAQhAAAIQgECqCOiI6Us7z05YmBr/VOCqPbVL6CKQlyOnnUd36z37l1vT8hys2d1iTesNyICyvPwtIC2MqQQCEIAABCAAAQhAAAKpItDUvkVe2321tHUeSGoVak/tzh+1lBFUi2xeitObTxkkP3nlkDy/uSmpD1c4Y7OOKZPZ1kGAAAQgAAEIQAACEIAABLKHQEvHblm56xLRcyqCbb9moZw2ZrmUFg5JRRVZYzMvxek9Fx8jehAgAAEIQAACEIAABCAAAQiEI7Cr4QlrKu+WcFkSTtMpvjvrfy/HDro5YVvZbIB5ptnce/gOAQhAAAIQgAAEIAABCKSMQGegRTYdvjtl9p2GNx2+RzoDzc6ovLtGnOZdl9NgCEAAAhCAAAQgAAEIQCAaArsaHpPWzr3RZE04T2vnHus1M48nbCebDeTltN5s7jB8hwAEIAABCEAAAhCAAATSQ6Cm4cmYK1p010TZsq6/XW7QiBa56Y4NUdvQ+sb2vyHq/LmWEXGaaz1KeyAAAQhAAAIQgAAEIACBhAl0+BvkQPOLMdl54NapMm56o3zlwbdiKmcya33t/nopLugStyY+X85M682XnqadEIAABCAAAQhAAAIQgEDUBGpb3xJ/oC3q/KueHi4Dh7XJR6/fGXUZd0atr651jTs6b+4Rp3nT1TQUAhCAAAQgAAEIQAACEIiWQGtHbGtN1740WE75eGxlvHyJtV4vG9kax7TebO05/IYABCAAAQhAAAIQgAAEUkagJQZxWn+wWA7vLRM9P/K92UGfrvn6+zJqUlPwPpqLWOqNxl425UGcZlNv4SsEIAABCEAAAhCAAAQgkLEEViyuDq431Wm+j3xvsnzuh+9I/yHtGetzJjnGtN5M6g18gQAEIAABCEAAAhCAAAQygkBZ0Yio/Wg4XGLnveDTO4Jl5l24T3S33l2bKoJx0VzEUm809rIpD+I0m3oLXyEAAQhAAAIQgAAEIACBtBAojUGcVg3q2jjJnI2DukFS/cEu4WriIp1jqTeSrWxLZ1pvtvUY/kIAAhCAAAQgAIEMI+Dz+aSwsDDDvOo7dwoKusd/9Bo2fdcXidQ8uPwkKfCVRLVjr07bNaOk/YfUBqut3V8ix8+PfsdfrW9I+YeksCD//j3p3xHEafDR4QICEIAABCAAAQhAIB4CKr769esXT9GcLFNaWhpsl17DJogjqy76ST8ZUXmm7G54Jiq/Z55+SJb8fLxMm9f1jlNdc6ph2rxusRrJkNZXVdFVLlLeXEzv/lknBa370pe+JHpkarj77rtFFboeGtRX53Um+x6OqbZr4cKF4bKQBgEIQAACEIAABCAAAQhEIDB20BURcnQn6xrTMy6vkR/eONs+9NUyN92xoTtDFFex1BeFuazLkrcjp7t27ZJbbrlFdu7cKaNGjbI7TkWdHgQIQAACEIAABCAAAQhAAALjB18ja2q+KS0du6OCoQJVj3hCWVG1jB98bTxFc6ZMSkdOM5mSilINRphmsq/4BgEIQAACEIAABCAAAQikn0Chr59MH/Hvaal4+oivSqGvLC11ZWolfSpOndNqdTqt1zRaM9VW02fOnGmPbDqnrK5atSo4NVfz6IhopKD1nnzyyXY2LWPsaV1ePhh7bn+ddcXjh5bX+s2h7XMGvV+0aJHdbpPHWafJ62Zk4jlDAAIQgAAEIAABCEAAAokRmDzsc1JZOikxIxFKV5YcK5OHfT5CrtxP7jNxqoJKp9UGAoHg8dxzz/UQh5pH40yeBx54wC5jukWFmopMHQXVPCtXrjRJYc9q1+TVck8++WTY/JqoZV588cWgL48//riMHj3aLhevH4899ljQd/Vj0qRJPdqvxq+44gpZunSpXe8Xv/hFOf/88+06zf8iMTL5OEMAAhCAAAQgAAEIQAACsRPQ0dOzjl0q/YpHxl44ihJq96zJy/J+1FRR9Zk4veeee4IC0fSZik+NN6ODeq1xJsybN09UoJngnpqr6amapqu+3HvvvaZqufzyy2XGjBn2yGa8fqiwdPp77bXXytatW4N16MVdd90VzHP11VfLunXreqRHYtQjMzcQgAAEIACBJBLQmUdmZo85m8/wJFbTJ6Z0tpSZWeV0wKvNpu36uR5r0DJangABCGQ2gcrSY+XMSUultHBoUh1Ve2dPek4qSyYm1W62GusTcapTYDWomHQGc69iL1SesWPHBotofhWI+kddp7+mKhhfdKTUfADp2QjFRPxwThXWUdJNmzb1aMaYMWOC986RWo00fhluJqOTkYnjDAEIQAACEEgFAf0R1cxw0mv9rMoVgerFS2dbmfbqD+Z6mHv9TI81aBktT4AABDKfwMCymXLelJWWkDw2Kc6qHbXXv2xaUuzlgpE+EafJBLd27Vp7aqwKOxWMqfxANB8+zrOOoGqIxw9dU+qeKpxMNtiCAAQgAAEIpJOAjgLqj8a6bIUAAQhAIBcJ6AjqeVNelTEDL0uoeVpe7ag9QjeBPhGnZgTQjPwZd8y9jgSaPG6xqWLOHXRqrArGBQsWpOQD0fhi/HPXb+5j8UNt6circ73rjh07jKmozsavaBhFZZBMEIAABCAAgQQJ6P4JJpiN/cysIxPvnDXk/mFZp81qupnuqunuDQONHT3rZ6Cx75XX+KBnk8/9ual2oq1P84YKpi5Tj+aL5J/Wq4cJxkYkf01+zhCAQPoJlBYNk9MnLJILp70t4wZdLQW+kqic0HyaX8tpebVD6EmgT8SpijidBmN2zDUu3XTTTfYaS73XPCo2nRsA6dTdxYsXm+z2tFanYNQpsWYarP5Rd6YFC8VxYXxx+2s+TLQeZ13R+GGEpSmnH166QVQswfgVjlEs9sgLAQhAAAIQSJSA8zNQbenMJrNxod7rZ6d71pD5TNR0Dfp5OH/+/OB0WRW8Xus/NW+mbS7obm80/mk7nEFthNsM0ZmXawhAoO8I6DTf+eN/J5fO3CPzxv5Sjul/gTVFd7otOgP+AvG3V0pxYIIdP3fsL+x8ml/LEbwJpFyc6oY95hdEPZsPF/1VVNemONNuvPHGHr8emlFFk2fFihV2mfHjxwdbo4LRpJ9zzjn2RkXmF1H3WsxgoTgu1BcVy6YuPesHpwmx+qHCUttvyqnA1B2AYw2hGMVqh/wQgAAEIACBRAmYH23Nkhe1p591+plnQrgNBk0e/bx12tANCfXHafP5bvLpWet02u/rzQXd7Y3GP2d79Nppw2szRHd+7iEAgb4lUFI4SI4dcpOceezTctG0d+SymfukbtVPpf7178v4zkft+ElDPiOajxCeQFH45MRSVYDqESroH2zzQRYqj67ldAbNbzb8UfHptYnAq6++KipUwwWvsk5fndfGjhGC5t6cvWxpWiQ/vNrv/DB2t10/fL3a686ndUfiqnkIsRMwXL2ej9itUQIC8RPQZ1G/5JugX+ZD/Y0yeThDIBUEdJTTzPzR9abuzyQzo0nrNrOF3COlbr/OOOOMHlFGfOoIrLl2ZtC/ycYHjVc/nMHpg6lbha7aMj65f9DW7xruHfSdNkNdO+syeSL5Z/KZs9OG21+ThzMEIACBXCSQ8pHTZELTab36ZezKK68Ma1ZHWJ2jmmEzpzAxU/xIYRMx3YcE9N+DmYnQh25QdR8Q0H7XL83OzdmcM0p4NvqgU/K4Sh3lM8+iW5iGwmLyO8/OH2dDlfOK12U87mnCXvn6Ki7T/esrLtQLAQhAwItASkdOvSqMJU6/gDnXmGpZ/SCLFDJlVCtT/IjEi3QIQCB7COhoj/5dNO9XNp7nyt+bwsJCGTmy6yXn5eXlpnmcc4SAGQXU0Ur3SKWzidu3b3fehhzdVDu6uaBTFCeyuaBzVNZrA8YeTkVxkwz/oqiGLBlEoK3zsLR27Je69nelsGKHBNqrJCAdGeQhrkAgswlk9MipTlFz/qoajTDNbNx4l0sE9NdwHaHSs1mLHGo9lEnXvCoi3COeGmfy6NnY0S82XvFaXjfMUJGi6Wa6cS7xpS3eBMyXZ1024BXCPRvu58z53Jjn2Txvxra7jHk2TXqyzypIdYqyHmYJR7LrwF7fEdDnV/s21AaDxjOdJaV//0xwbpho4vTsFLt6r8+nc3qvxkUKxqdUbC6YDP8i+U963xM4dOR1eWPXLfLE2pGy6O3B8qd3p8hbhxdK1Ql3Sv8P/Ye8uG+iLN/0Udl86P+kw9/Q9w7jAQQymEBGi9MM5oZrELAJRNpRUb/8P/fcc8EfWR544IFeX5w0j3tKmn6h0S9Z+gXO7HK5cuXKIHX94UY30NIvefqjjQoIQv4Q0GmU+uw5xaVpfahnQ/Pql3bnD376bDptqE3zvKm9UM+mqYszBOIhoM+o/u0yP4To2b0UR5/xO++8M5hH95FwPqumXhWWmjdTNxdMln+mvZwzi8Cuuj/JMxvnydKNc2TDvrulpWN3CAf9sqfhOVm57VO2gH2z5qtW3r0h8hINgfwm4LO+qESeJ5vfjGh9igj89a9/lY0bN0plZaXccMMNKaoluWbNlyMVgzrS5NxhWn/l1y9Izn9S+qVLRaVz+pra0PWC+gVNg+Zxb/KhtnXHyVtvvbWHPWdrdNT24YcfDtpxpnGd+wT0xwszKqNfzs2zqS33eja8nkXzzOrzp6NGzudZ7YR6Nm+77bYeO6lqXgIEkkVAR/91QyTnM50s29iBQKIEAuKXHbV/kHV7viu1zWviNlfgK5PJQz8r00Z8RcqLR8dth4KZS+BnP/uZ7dycOXNED0J0BBg5jY4TuSDgSSDUjoqa2UxJcwpT0euq2QAAQABJREFUjXdOVTR5VGSoEDCHrqHS9/rpjpMap2KDAAEnAR2R0R9C9McPHRF1TxV35jXPmftZNPcqTjU4n2dTxuvZdNrmGgIQgEA+EWhq3SJ/33lLQsJUefkDLbJx/0/kg4MP5hM+2gqBiATSLk51xMn5JUp/GdUv34kEteG0mYgtykqPNZGwTc8ToSLDfejOlbrJhwoHnW6p/05Svd4vPa2llmQSUIGpz4iuPzaCMpn23c+l3se7q2oy/cIWBCAAgXQT0LWlz7x3ijS3d/2gl4z61+6+TVZu/7S1aVJnMsxhAwJZTyDt4tRNTMWqftmJN5gRJTNFMl470ZTTutIlgtNZV7i2a//o9Co9E2IjYKZcugWlcwdIkyecqDAjZLpG67HHHovNCXLnBQF9RsKFUM+Zee7MCKrTRqgyzjxcQyAVBPTznCm9qSCLzUQINLfXyN82X2LvxJuIHa+ym63R03W7v+2VRBwE8o5An4vTRInffvvt8uUvfzlRM5QPQ0C/JMS6+2EYc3mTpIJBBWW4HSBNHq+dK1U4GPGg0DZt2tRj2qXGuV+1pHGE3CagP3a4v7ibH4+cItP5bOhz9sUvfrHXDqmhdkBVguGezdwmTOsgAAEI9CTQ2nnQ2m33XGvEtKZnQhLv1u65Xd7bf18SLWIKAtlJIChOdURQv+Do2ax70y/G+kXI3HtNv9UyznT3KJF+iTLpusmLO2i6+aLlrssrv7O8+qfr8vRLlAlal9MHzeP0W23qqKSejV/O/GrHlHGmKxedWul+dYexZ/Jqeb122jT2NM0Z1A9TTs96ryFUXZHsevmi9hLtI7WhG66YL8B6T4iOgBnRN/28YsUKm+X48eODBjRPqJ0rzQ6UWl53q3ROp9RrsybV/BsKGuUiZwno3zt9zYZ5pvT84IMP9piB4vVs6L9f/XfsLOfeAMkNLdyz6c7LPQQgAIFcJbC/8SWpa3kn5c374OCvrDrin02YcgepAAJpIFDkrENHx3RzDf1Col9k9Iuxfvk1025VNOmXYCNS9Fp3HTXpKq50Kpi513TzGg2tR0Wa2tQv4l5Bpyzq2ikjNt31ucv8/ve/t3c0dcdHujevS9B61Ecd2TIv8FZRqT4aP9RnDcpE2+e1O6rTXqS6TboyNK910Dit17y3MFxdpnyos9uXZPXRqaeeam/rr/byOZhnXxmYZ8bw0OfJPPsmziufMnRuiqR5tM+9gpc9Zz63D840rnOXQKTnQlvu9Wzosxfq37BXfrUT6tnUNAIEIACBfCDw9u7/SkszDze/KTvrnpLRA7y/J6fFCSqBQB8T6CFOddqXmRZ25ZVX2uJJXxlggr7aQqfRmqC/3quIM8H8Wq8iTq813fluRrWtdaig9QruL01an4rBUEHtXH311aGSQ8br6IERwFpe/TTBtMekGx4m3evstOeV7hVnfggwaVqfMks0uH1JVh/pjw46rZSQGAH9t+Huk8QsUhoCEIBA6gn4/X7PH99SXzM19BWBwsLCvqo6o+o90LQyrp15168aKEt+Pl6u+fr7MmpSU9Rten///YjTqGllRsY1a9bIli1bejljfkjesGFDjxmVJuMFF1wgpaWl5pbzUQI9xKlzNMeIM+erBZzUzIii2TTDmabXJt0t7rSOUOJUy5kRRb3WoCO3yQ7ONhn/deRS26z+mqmSjz/+eFSC0WkvGl9DsYmmbKQ8Tl9MPaaN7rImPdY+ctvhPjQBHf13rv3TnOaPVehSpEAAAhDILALNzc387cqsLkm5NxUVFfYygJRXlOEV7KxbHJeHKxZXx1Vub+Pz0u6vl+KC/nGVp1D6CUycOFF02ZY76DIaDQ0NDfbhTJ8yZQrC1AnEcd1DnDrio74M9UXbCJ+oDVkZdc2kriE1NnWUyTlSG4utRPLq9DYVq0bUmSm+idjsy7KGp9uHePrIbYP78ASYEhmeD6kQgEB+Emhoe1d21D8qh1pesXY/3SutnQes9z62S2nhUCmxjv6lM2VM1VUypPx08Ulwe4z8hEWr+5TAjlrvZTfhnFr19HAZN71RDu8tC5fNM80faJOauj/LuEGf8EwnMvMIVFVViYrNjRs32s7p924jTEN5O3fu3FBJeR8ftzg1wk0FjnvkTamadDMiaUg7X6Nh4vSsdtatW9djndSOHTucWXpd66Yymsddv1NMRrLRy+jRCB1F1YdLR750Lax7ynGociY+nA+h2Jiy4c7h7LrLmXqS0Udar/5wQIAABCAAAQjEQ0Df47irYZFsOnSP1Let8zTR3LFT9KhrfcsSrw9JWdExMmHg52R8/5ukuHCAZxkiIZAqAp2BFmlofS8m8/UHi+XFRSPlKw++JW89PzSmsibz4eY1OStOW1pagoNQpr25cD7hhBOC4tSrPU7Beuyxx0pRUZHojJRsCzrdv6SkJKVux/1zpIo33dhINw9yBiPiTHq412g4yzmFlMarqI30+pL58+f3WpOqPulGSSbEOvKqQk4PE9yv73BP0TT5nOdIPigbXXvrZKPt1ZFiZ3DXFcmus6xemz5IRh+98sor9vtO3XVwDwEIQAACEAhHQEdEt9f/WpZvPVHe2HNTSGHqZaOlY7esP/Bf8tzW42XDwe9Ke2edVzbiIJASAi3te2K2+9iPjpWLPrc15nLOAs1x1Ossn8nXnZ2dkotHv379REWnBh01dc9adI6kzpo1K2sZ6P4DqQ5xi1N1TKcsqmBS4OZQwWiCmdJo0sxrNEy686xCSjfzUSGl+VW46ZrPcEE3EFLxqMLOhHvvvbfHaxacGzqZPJHOxgf1w/n6DrPhk8YbEe5lKxofdG2t2jZsVJyfcsopQXNedUVjN2jg6EWy+kh/KNBNsggQgAAEIACBWAjsqP+drNn7r9LU3nvDkGjttPvr5L1Dd8q6A7daL9rojLYY+SCQEIHGtq0xlX/2odH2dN5p82pjKufOHI8odtvgPv0EVHR6BadQVQFbWVnplY24owR8FrCsfqGSjjaq6HW+4oPeTS4BwzacII+nxr/+9a/2FAj9R3rDDTfEY4IyEIAABCCQBgJNTU29RgKiqXbjwe/JxkN3RJM16jzDK86VOdUPSWFBedRlyBg7ATZEEjnc/Jb8ZcOJUcHT3Xl1E6Sb7tgQzP/DG2fHvFuvFh494BI5Y2J8GzEFK8/Qi3j/lmRoc3q5pZrkgw8+sONVYukglDNceumlWS1OdTpyWVnsa6mdDCJdx73mNJLhdKXrCKM+CLo21IzUpqvufKhHBanurpxvbHP9j2c+PLuxtjETv4h1dHSIrs8h5A+BdHzwp4vm1rpfJV2Yqu/7mpbJmn3/KidW/5zNktLVmXlaT0XJ+KhbrsJUN0BSQeoMj3xvssw+84B89Pqdzuiw17HUG9YQiWknoKOnRpxq5U6ByqhpdN2R9eJUm2lG9qJrMrliIQDbWGiRFwIQgAAElMCuhsfl7X23pAzGzobfW7v6DpYZw76fsjowDIGSwoFSVFApHf7GiDCcI6Ymc7wjp+UlY4wJzllGQGcDqghVgeoeNQ017TfLmphydxNac5py76gAAhCAAAQgAIGsI/D+4bstn1O7cca2uv+Vlo7YN6zJOpg43KcEhlV076WSLkf6os50tS0f6vESoYyaRt/ziNPoWZETAhCAAAQgAIEIBPY0LZH61rURciWe3Blolk22CE7cFhYgEIrA6IELQiWlJL6sqFqGVsxLiW2MpoeAGT111uYlWJ3pXHcTQJx2s+AKAhCAAAQgAIEECWw69JMELURfXEdP2/310RcgJwRiJDB24GVS4ItvAxh91+moSU0x1Th+8LVW/p6b6MRkgMwZQcApRhk1ja1LcmLNaWxNJjcEIAABCEAAAqkg0Nq5Vw61rIzatO5wuuTn44P5z7i8RuZduC94H+lCR091g6RRVZdHyko6BOIiUFo0TCYP/Zxs3P/fcZWPpZCK4OkjvhxLEfJmKAEzeqprT51CNUPdzSi3EKcZ1R04AwEIQAACEMheArsbl1jOR/+GuvqDJaKjSxrqDxbLz79yvPQf0iaxvCdS60Sc2gj5X4oITB/xVdl04BeiP4akMqgI1mm9hNwgYESpClVC9ASY1hs9K3JCAAIQgAAEIBCGwOGW1WFSeyc5R0n7D2m3X7mx873YvsjVtsZWZ28viIFAeAL9io+RWSO/Gz5TgqmVJRNlRvU3ErRC8UwioKJ0/vz0b6iVSQzi8QVxGg81ykAAAhCAAAQg0ItAa8feXnGxRujIaSyhJQl1xlIfefOTwNThX7Km3H41JY3vVzxSzpr8rJQWDU2JfYxCIJsIIE6zqbfwFQIQgAAEIJDBBFqsNafxhl2bKuSt54fGtOZU6/IHWqWtszbeaikHgagJzB55p0wZ9i9R548mY7/i0XLWpGWiI6cECEBAhDWnPAUQgAAEIAABCPQZgR/eONuue9CIluD60z5zhoohEIHAh0b/t1SUTJA3dn0pQs7IyQPKjpczJy2VckugEiAAgS4CiFOeBAhAAAIQgAAEkkKgrHCE1Ets7zh1boikQjXWHXsLfKVSUjgwKf5jBALREJg6/IvSv2yKvLnrq1LXEtvzrvZ1V95JQ2+SE475Ns9uNMDJk1cEmNabV91NYyEAAQhAAAKpI1BaNCJu47oh0jVff19eXDQyJhtlCdQZU0VkhoCDwMj+F8jHpr0tH5n4Jzmm//nWm0kLHanelzqFd0b1N2XBjK3y4dE/RZh6YyI2zwkwcprnDwDNhwAEIAABCCSLwKCyObKj/uFkmYvKzsDSOVHlIxMEUkFg1ICLRI/WjgOyvXaR1Lesl5aO/VLXuEP27a0T6aiSyRPmyuSRl8rwytMsF3ypcAObEMgZAojTnOlKGgIBCEAAAhDoWwLVFR+Tt0XX4kV+16m+13TV0yPko9fvDDr9yPcm29N6gxFRXBxTeVEUucgCgdQS0J12Jw/9fLCSXbt2yVMvPmXfj59xiSVMRwXTuIAABEITQJyGZkMKBCAAAQhAAAIxECgrqpbBZSfLoZZXI5bSabzb3q0UsyGSFoh1vWmhr5+MqDgvYl1kgAAEIACB7CCAOM2OfsJLCEAAAhCAQFYQmDT4X+S1msjiVBtz0x0bEmrTuAGfkqKCqoRsUBgCEIAABDKHABsiZU5f4AkEIAABCEAg6wno1N4BpbNS3g7d8XTy4FtSXg8VQAACEIBA+gggTtPHmpogAAEIQAACeUDAJ9OHfstqZ2o3fjl20P+TUuvVNQQIQAACEMgdAkzrzZ2+pCUQgAAEIACBjCAwrPwsmTnsR7J2/7+lxJ9RVVfI1CHfSIltjEIAArlLoPKV3F0G0HhqQ050HCOnOdGNNAICEIAABCCQWQQmDPysTBt6e9Kdqq64SE6q/oU1LstXmKTDxSAEIACBPibAX/Y+7gCqhwAEIAABCOQqgcmDbpFZw++zhGRhUpo4pv/1Mmfkby17TPxKClCMQAACEMgwAojTDOsQ3IEABCAAAQjkEoFxA26QeSMXSXnxuLibVVTQ31rH+l05ccTPkiZ043aGgiEJtLa2ih4ECEAAAvESQJzGS45yEIAABCAAAQhERWB4xTly9vg18qHqB62dfE+IqoxmKis6RqYNuU0+Ov5dmTToX6IuR8b0ElBBunr1annooYfkwIED6a2c2iAAgZwiwLyYnOpOGgMBCEAAAhDITAI6tVc3MtKjoe1d2VH/qBxqeUVaO/ZKa+cB8Qfard13h0qJdfQvnSmjq66UoeVnsLY0M7vT9kpF6dtvvy1r1qyRtra2DPYU1yAAgWwhgDjNlp7CTwh4EAgEAqKH3++3Uzs7O3vlKigoEJ+v65UOeq0HAQIQgEBfEqgqmW5N003+ZknJbFOgrlbkz090mfzYpeIbMDCZ5rPaFqI0q7sP5yGQ0QQQpxndPTgHAW8CHR0dokJURekRa1xhZ6BINgaKrcx6iLwXKJFyX0BGS7t9P9Tnl9G+DhkjrbZQLSwslKKioqBotTPxPwhAAAIQkICumXzhGZFFD0nVwT02kcYXlkrg8utFPnKu+EpL85ZSKFGqP5KaH0HzFg4NhwAEkkIAcZoUjBiBQHoI6BcAnTqlolTF6BJ//6Oi1KP+gMibUtIjoVwCMtvXKhf5m2RoR4stUIuLuwRtj4zcQAACEMg3AjoTZfUrIo/+Wqo2r5fGTr/UnXORTaHwuSVS9T8/kMZlSyRw1Q0iHz41r8RYKFGqcPRziQABCEAgWQQQp8kiiR0IpIGAjpiqMN1hvUbhx52xTzHTUdZXAmXynr9Evld4UNSe/tqto6gECEAAAnlLYOO7Io//Rspef9n6KynSOPtkCVxxgxQe37V5U+Dsj0mjpr+1UgLf/aq0fvh0CVx5vfiOm57TyCKJUv380MMpUDds2CA1NTU5zSWaxtXX10eTjTwQgICLAN9IXUC4hUAmE6hvbrdex+CTIdJpTdntkJ1H3/XXdKhe6vcdlM62rmm89XsPSpE1Ilo+uL/dnNKKcuk/YoiUVvaz72dZo6cm7K1rkVFDKs0tZwjETeA3K7bK71Zuj7u8Fhw3tEK+c+kMGVqVv1MnEwJI4dgI1OwUefJ3Is8+JZUFPmkYf5zIFZ8UOeU08RV0v5vVZ4nUwLTvS/OrL1si1hpZfeNlaVj9kgTOWyCy8BPiO2ZUbPVmQW4VmStWrOix0ZERoUaUejVDy2k6AQIQgEA8BBCn8VCjDAT6iMDXnlgvP7p8upQXBuQ/iw7Lc62F8n9v7ZRdhxrl8N5Dvbw6vLNrvVRhcZEMHzFYjq8eKF+cMcxae9ph512/p0mWvrNfvn7RtF5liYBArAR+v2q7vPx+Yq+R0PJ/eXu3/PCqWXLl3DGxukB+CERHwNrsKPD0kyJ//L1UtTZL4+Dh0nDZdeI76wKRfl0/4rkN2WJ1/kdETporDcv/Ir4//FYqn/ujNLz8nAQusQTqBZZQ7T/AXSxr76dOnWqLzNdee00aGxvtdhjRqSLVXGdtA3EcAhDISAKI04zsFpyCgDeBnYeOyMRvvCA//cRM+djxQ+Sc0k45Z94xwcw63Xf17u6pROUlRfLhwWWiGyJ1hw7Z09AhD75aI/cse09uvWBSdxJXEEiAgHvp2dn/7xJZ314gu06rCmn1qb/vkAV3P98j/VBTm3z6wdXyh9d3yL3Xf0iGMYragw83CRBobZGAtdmRb9Fvrc2O9kpDcak0LrxOAhddJr5BQ6IzbIlXn7V7b+DUj0jjkj+ILHlcqh79lTT+9c/WqKu1HtXaNElKSqKzleG5VKDqoaOh0YrUBQsWyKhRuTeSnOFdhXsQyBkCiNOc6Uoaki8E2jr88rlHrPVRhcVy6qQhctVJw+WUcZXWi+19MqioQz42vEJKrX/Z/oDPen9gQDra/bK3PSAHjnTK0g11cu9Lu6XpyBGRju6pvfnCjnZmF4Gn394jH7rtWbnnmtly6YdHZ5fzeJtZBHSzo9dWiDymmx1tsDc7arDWkcql14iMGW+vM43VYVvMXv9ZkX84VxqeeER8ljit/Nn37U2T5OimSbHazNT8kURqpvqNXxCAQPYRQJxmX5/ljMe60YIGr3dz5kwjU9yQV7bUyyvbmm2hqmJVCqx/0vZhrZXS95nq+08D1rtPO61pvJ3WelS/dXi8CzXFbuakeX+gTZrb91g/AOy3fghol7KiYVJaPEyKC7rW+eZko2Ns1F9/+pRdwnd/jAWPZh88Y6yMu/BDco91f8/m5O0Iesy+A/LoycPicyrjSgWsZ/Cg/Ry2dh6ynr8q68epYVJWPNwSXN1rJjPO7XQ6tOEdCehmRn9fYYvQhlnzRK68QXzHz0qKFz5L3Mq/fl0C53xMGh77jZSvWSWd3/l3aZtzul2PHDul6+9xUmrrWyOI1L7lH0vtfEbFQou8mUQAcZpJvZFnvhw8eNBucXOzJa4IEMgCAi0de2T74UWy5dDDcvDISk+PK0smyvjB18qEwddJVam1uQohLgLVp06VY+ZP1fdUxFY+io1Y9hVm95TLgPhlf+NL9nO4o3aRtHUe7sWowFciI/tfYD+LowZcLIW+sl55cj0isGuH+KzNjgLWZkdVhQXSqJsdXflJ8Z18miUWky/cbbF72w/kyKsvic8Sw5V/f1nqV/1NfD/7nfhGj8sp3KFEak41Mgsbw2dUCjut2Jr2X5GG/Tnq37AGEqzZbXkcEKd53Pk0HQIQiI5AY9sWeWfP9ywx8BtrlLQtbKHGts2ybs+37aO66lyZecw3ZViF9WWYEDWBsRecJEOsUdO4QjRiNpo8cVWe2kIBa5furYcesZ/F+tYNYSvT53Rn3VP2UVI4RKYNv0WOG3azFBfmzoY9IQHUHZbAkiestaCPSqW1xrTB3uzIeu3L2aE3OwppK9YES/T65v+DtWnSPGl4domIVb9vyPBYrWRNfkRqZnQVn1Ep7odzY/yRNFF3Atast2eT/wNaom6lqzziNF2kqQcCEMg6AvWtGy0h8F1bEKgwiDXsaVhmbT61TIZXfkRmVv+njKg6K1YTWZU/UFwolaOj3FQmRMsGHz9GBk8fLQF/hC8DHm+q8IjyriXLxKlOG99y6NfWs3iH6I8fsYa2zoOyZvd/yLt7fyBThv+rTLWOksLBsZrJ+Py+lhbx62ZH1i66FQf2SFNpP2uzo2tFLro8+s2OktVK3TTp41f0WssaaGoUn76+ZuJkazlG7nz5dIrU0lJeA5WsxyiSHT6jIhFKQroRpq9ZPzLXWuvWUx1G/qPIjP8V0XqXRf2plmqv0mofcZpW3FQGAQhkCwEVo2/XfFO21z6esMv7Gv8mb9Z8Vc489ml7PWDCBjPUQMvsSTLJemVR1CHU564tHiOIU2vDL3cIW6JH9rA53Wb7/L62eY28sfPL0u6vS8gXLa8/tlSUjJNjh9yYkK1MLNy5+hXp/4sfS4u1rr5x5Fjxfe171otzJ/QSiH3iu7X+P/CKNcXX2pCpZMdmaf3698U355Q+cSWVlapIJaSHAJ9RaeB8ojX7QUM6RWLN/4kcfM7a9XuHSLH1edre+zWBtk85/D9rxxQCBCAAAQg4CXRa6z1e+ODipAhTY/fQkdflmY2nSGPrByYq985FhdYSUetLuCUuozqs0VEdIY3mOK60QP5hQJHDrtYT6vCo/2g91rxsaz1P9qCvqf+LPPveRxIWpqbF+oV21fZPy9o93zJROXP2TZ4qjXPPkE6ri327tovvN/dL4J23+7x9gXfWiNz+FSn/0TelZPsme6M6HUElQCBeAnxGxUsuxnLDrB29+yK0WrMrNJzYtalg103+/B9xmj99TUshAIEoCazcfpPstkRBskNj2wfyt80LpMPfkGzTGWHPFqS2CLREo44UeRyWouza5CjG87cmVEpNizW12haXKjDDHZb6tHeqts66dsdxGNGcEcAiOFHX8o68vOUqS2wlf3OMtbtvs6YK/zaCB9mV7KseKfK170jgtrtEps2SyjdekYJb/0kCP7FGUHduT39jrDoDP7nD8uGfpfLt16RxxoekecaHpbDAGsbX3dQJEIiTAJ9RcYKjWFYQ4K9jVnQTTmYygT179mSye0nxrb3TL5f898tyoKHr9T/hjK7bWSefeuC1cFkyOu2tmq/JtsO/S5mPdS3r5G8fLLAER0vK6jCGDx06JOaVTSYupWdLL0YSn16CtTvOYxTVErGfH9lPqop8sqGpwzFy6jE66h6xtYWy22bXaGtKOSTBuK4tXb7p3JT+kLFy26esDZP+mARvvU2k/fkzbnzIelXMd+6Rhi98Xfwjx0jVC0sl8G+fFv9vfymB2tRPkdM6/L99wK6z6oW/iH/UWMuX/5CC2+8S39TjrZ2Te8wxN15zhkBUBHLpM8o0WD+n0vpZZSruy7OuKdXjlDf70ouMrBtxmpHdglPZRGDZsmXyzDPPSK6KVBWml9/7iixfv0+aWjvCds36mnq58K6XZE9d6oVXWEfiTFTBuPngr+MsHX2xvY3PS33L+ugLxJlzx44d8uSTT8qaNWvS8sHfPXLqEoRu0Rjyvucop454TikrkM+PKpfnD1nPVNjRUsdIqmU/vEiOE2gai+2s/aP1Ht2alNYYkA7reX8wZXWk+/lzNsRXXGLvzuv70S+k4ZrPit73f+Ih8X35sxJYak2Vs3bRTXqwbKptraP/E7+x1ouVSMO1nxX54c8tX84Xn26A1G69a5oAgTgJ5NpnlMFw+PDhtH5WmXr77Dz5ju6qq2Z3X3NlE2BDJB4ECCSBwN69e0VF6ogRI2TWrFlSXV2dBKt9b8IpTCN5o8L0vB+9KIePhH/VSiQ7fZn+/v77Rd8Tl/oQkLW7b5czJi5OeVVtbW22OF2/fr1MmzZNdMOSlO2maUShu1WWVow2BLNag0tVhT65e0rXq09eq2uz9KYlXkMGx2hU0Ih3ZhXRmRz0C+i7e7+fFhd15PRw85syqN+JKakvrc+fVwsq+4vv8utEzjhbGp56TOTpP0jVL34kjdZrXgJX/aPInFPFl+hIpv7YYm3G5Hv0/6RqywZplEJpvMDaIfiSK0WG58ZngRda4tJPIBc/owzFPv9bYRzh3OcEEKd93gU4kEsEckmk5psw1efw/QP3x/U4PnDrVLng0ztk1KSmqMurKGhu3y39io+JukwiGdPywW9Po3UIyKBeDF5E3wRLP/7TuCoZVVooDdYON8sPdI90eVrzRRKcjlIZLk531i6O+keSXZsq5JHvWa8lORpmn3lAPnr90c00TGTYc8B67n8uc8fE9+yHNe1ITMvz11gvvjdWiX/mSb1fHTP8GPF95l8lcPaF0rDoISlZsVwKv/dVaZlzugSusN6Betx0h7fRXwbee1d8jz8k/Va/ZG/E1DD/LJHLrhPfscdFb4ScEIiSQCyfUe6/DVpFLH8f0v0ZZRCk5W+FqYxzRhJAnGZkt+BUNhLQ0RjzC3y2i9R8FKb1LRukwXqvaSzh2YdGy1vPD42liCNvwFrv95RMHvp5R1zqL1P5wW+m9eq7O2wpGNSLwYuoGzhnQIlcN7Lczr+61lrr7BCUntY8I53VOTLo9OAMDjsscRptePfVQfKVB98KZtcfSlY9PVzmXbgvGBfpQqcQzx3zP1Y2h4CPVCjO9FQ+f/43X5f+93xbGgcPtwWinHW+SGlZD099+n7Rf/+WtL95kbQ9+hupev1laXjtRQmcf6n4Fn5CRDdViibsqZHAk9ba9KVPSKW1uVHDNGvk+aobxDd7jndpnfK7fKn4/rbMTveFnQXgbYLY/CYQ62dU/cFimTCjXi6/ZXOc4PrmM8p8l0rl34o4gVAsTQQQp2kCTTW5T0CFqfmjalqbjSI1H4Wp9tfO+ugFgeZfv2qgbHu30hYGKgjiCTtqn0yrOHU+nyn54NcdcvWwQlD+xaF3qooK5NvHDQoirbSm935+TEXwXi90596n9sayi223I8ohU4M/0Co19U9H7Z57lHT+gj2yYnF1TOK0pWO3HGhaKUMrTom63ngypvz5s/q11VojX7R/t5RZ7zttsKbuypWfFN+80yzd3d3/tu8nzhWZeaI0vLRc5PFfS9WzT1nXz4osuEZ8Fyyw5pT3925iQ70E/mL9rVj8iFS1HJHG0eOl8QpLlJ52tkiRx1cqy6fAqpdFrPebVm3dKI3WLIDGj35cZEZqplF7O01sLhDYUfdkTM2oP1giA4Yltswm3Z9RpoEp/1thKkrFWTc50vDGRSIH/tx1zf9jIuDxlzSm8mSGQNwEChxb6S9eHJswiLvSKAt2Wi9xjyeYkVPnH1a1ky0iNROE6YsvvijNzc3x4E+oTPtw60OkMnoT0+bVih6JhL21r0m4Z1+fI/9RsRdPPU1NPacZez2fyRSp6q/uvOsZXNrAM8/RkbvvThkko8qszWOOhrkDS0UPZ3hoZ4MsPlpXeNMm1SFIQ/norMDjuqamRtauXeuRksSokhrpGJ3+Vw09/+qvpbhxb8iGxPM3Md3PnzpfZL2mpenEU6W1sEgqVlsjonfeKq0fPs2aumsJyCk9p+76iopFzjxPAta604ZlfxJ50hKcv39AGpZbPw5cYYnaj5xjGbTyaOhol8DfnusSsvtqpKGivzRe/0/WbpsXi1R4/+EIbNQpv7+RMmt0VkOj+nG5NYXY2rHXPJV2QpT/092PV69eHWXuxLMV6gZOhJAE+vfvL1VVVSHTk52wu+B56xVEybYa3t7++teT/szpZ447NDb2fO9vqj+r3PUn7f7Udd2mTrJ+HFsWz7/0bhP5eoU4zdeez7B265e+XArmD6u7TUak6qZJemRSiEWYvr2jVi66++WUbH504MABcX9QpYNT5dB9ku4/iH5fg9Ts3mENM/7/9t4ETq6qzvv+V+/p7BuEbCwGA8giIiQQCcMiguIQdpABlWHU94HnGWRmnkFn5kXHcWBeH5Z5HnicRR1HZNhDUBRUCBINEBBn0AgEEQJZQAIhSXdn6XR3ved3O6f61q2qrqWrqm9Vfc8nlXvvuWf9ntNV93f/Z6nuQ2C2/ulF6ssvv2wf+chHbNy47A/cw7WF3xJmuDDBvay/1wn3wJ60k6Z32knTxgybxIvdu+36NW5LkD3phGRnJJ4CZN6ViC7Fbd++PXjRVErcQuM0T/idjZ9daOjMcL9ZOcX2PST9QS8zVKZP1/Z1trNK38OV6n+qVbBNy/7zrPmSz9jOp1Y4i+V33H6nK63bCcSBD59pibOdZXSfWWkAEuOcwHD+dvwp1vW9uy3xg3tt3K1/b9skWC/8dBA2WOzopV8Fix11fex8S/zh+WbT90pLx18k39hgyaX/YYkfLwuG/Ha/x4niCz454sWX9Deq3xBcPAhU+7ll3PvWWksOg342IrKcatqJn3pSzHxTn15fcqs984unKv4bFX2h7/MPf1f4MP63Sov8LVq0yObMmeODj/6xOX2Ez+gXqDZLUO1nsdqkRKkrQqC1dfCNtN7OapXbOLlirATZHhb8l6g/+rrFdTXfYoXp6W67mG07KrMlwrRp02zs2Op/wfd2bskiY3zLVeaYaOq3fWaPs0T/0BDWcE7qPyO1nGYT+kpXLvzD39bWNvLVfEOW06z6M1y5oACp/9xJ0sa54bxfPWRqNFTG9RdXv5VpoU3L0F9kF6E5rbsZOaV7dHZ2Vvy7amDCC1bqX5bmmr66ekLaHNT0GuS+Gje536YMzMwZoJjvRJ+ILKdV7X8+476+wbOFiy3hhu92PfYjS9z3XZvw6Peta+WjljzzIjd09ywzZ/lKc05sJv74Sku6uapdLnz7zx6x5JeuCoLo1UmXE6/BYkdO/GZ12zTk1w29fOAOm6Ahv3vNDIb8Jk841RLt6Zb/rPHzeOpvtJq/lVhOszdItUWpL0VT+zv+tKCjhvyHh/1/7bL3B/HCfvkS0m9UU2uPDfRG/lbyRSzTff8M5Y8+2bg+S/nypR/dy+dT93wn/cZtLbXhX9Nvc5VBAHGagQSPahGYOnWqyUo2ZswYW7JkSbWyLSgfPVT5B/h8Eb7zHbef3R4X/QL1D/9x/iIdcILC72Pq65HruHrDNvvMt3+RV5hGp3flSi+b/+LFi7N5V9zv8XX72NadmyqeTzSDj330LGtrnhT1Dq773EP2zp1Dq9RmDTSMp/Y31cc736d9v5R/WUSpz0DDZfcMmc0uC31Af5SI3BPSnf79+/ayCU6gDueue/Fte2HYfXRdQvlW7t0jzofLJ9u9mTNnmj6VdG/t6Len1t9SdBb33nhAycJUmb1n/4PsqONzfw8X853oC1/1/uczDn0BJd2CSInTzrTksYut6wdOOH7/Tht/1zeDobuJ8z5lyRNODvZA9VF1TEh8/vmXrPfDbsjunf82eMtZUBNHHBUOljpP7u51Cx050XuP20rGzXft7ui0rvMvM3NzVxMTJ3kDfyp8qSdTpkwJRjWUGr/YeHpJGP6uKDY+4ctL4Icv/ott2bG55ETP+Oxae/Cf90sTrIUkdtmnP5fzN6qQ+NEw2b5LtE+8tuPzrhafpXzZM44nhkY7vO9fEKcZgDI9EKeZTPCBwIgJ+B/0OItSX8n7frHBXv59l78c9vjJf11lu/pyzCkMxSzx2T+UQvVPx7Xt58Tpr6qacWvTxLL+6A9X+OiPfVlF6Z6MlUdhVsnsls0Xtu5ywtOtzOtvu3SvnDclVa2nN++wf3/13dS1PxkM7iOFZLH38gH9scQ5pz56JY+drfsWnbwW5JrkFj4Jr9pbbCJjXf+vpKtG//PlT/Zm2p4TE93ohE84wfgHp1q3VtnVkFs3dLfrx99zQ24/ZXbUAh89dZQYTR76/uA6kWv+5bOrzO76to377WrrdqtAd33ECXy36m906LBPNLnuVWv+xZPWv9hZU6dO894cIZCXgH6jtuwYetmYN0IkwISpmX8XkSAZl9X8jfKZ6/lJ3xdytfQs5cufcWzNPxooI06DeyBOG7wDUP3yEqjFL9JChalIFSJMy0u0eqmNbZ9bvcz25NTZVr25Mr5vVkKUenBJt1KqPmFx6e8NHaUYQwJy6Ibdsibdcn3QxPaUOO1yL0W+8F9vpCyzoWgutdxppsKFhKp/8Endi9HJmNbiJpzKYqo5psUM1ctW3bEV7ovV6H9+Rd6m5Q+adY6x5MfOcfudDr3cCOo90/G94i/MTvmYdbv9Tjvc/qTJr/yZ7Tr2JLNzM/cnzSVKk797yexeN/T3yeVB7+ty+6UmzneLLh14cDa8ltyy2RLfv9fsh/dap9tWpmvydCeUP5w1LJ4QyEZgpL8X2lpm8t7FjcQZaZ7Z6lGIn/++iPUL/oQbrvvhPcN1/9ONstjkvndwZSGAOC0LRhKBwCCBWH+R0kjDEpjWeZy9ZLcMG6bcN6ePW1TuJHOmV0lR6jMNW04DLRgShEOKNbswVRrRO6fsNbQo01dXv2nre5xVNc35DKIx0wJlXBRm3c2IVhWP9uapNr59fkF77uphU3NMP/u134ywbAmrdF+sRv9LHPlB67rgj82+d6eNW3qbdT/2sCXPcYLz5NMz9zt1K/cmv/j3tvMXTzjLp9vvdNVj1v3UTy350XMtceYFZnvlWAfhrd9b8oG7LOFE5jg3fLz7vYcOblfzwezb8CScEB149KFgzuu4d9+ybveSZZcsQ261et97R9h4RG8QAtPHLrKXNhX+G6UXV36PU31XaEjv4nOLW3yy0t8LuZquJp6lPvS7oeIf+X1W5h2iMeIzxOmIEZIABCxYpEKr786YMQMcNUpg5sSPWlOizQaSvVWrwZyJuef4lasQ1RAFqbIWNOfUPZIX+FR+8oxBcfrIG122dG1oOG8QX/8VJ0p9OZNu+GWc3ZxJS+z53/9D3iJ2vdsWhPnnv3hfRthPfPG3Nmte+lZCGYH2eEztPMY6Wirz3VXN/pcY5xZtcaviJt0WMF3LnIB8+H4b/40brfuRH1gyy36ngXXm6EWWPOJo6378J5a814nUh+61rhVu7tvZF1sivE1MT7cltXrv0tttfM8269prH+s691Izl1eirT0TrYa4h/c3dQMKtp1xfmBB7Vz5iEVfs2QmgA8E0gmU8hvlF0FSSppzWuz2Z9X4jQrXsiZEqS+wLKe4ihBAnFYEK4k2EoFTTz0VUVoHDd7aNMFmTfy4rdtyX9G1ufy6F4uOIzGw93g3lLCCTkvsH3TQQdZehpVCCyqmE6fJrHsEZ1GjWbzCeczqbLWDJ3ZY1+4B+5/PvF7AcOFwbOnfPRlkyyfGc05Vi/2mXFyQOJX4HMk8U09s/yl/5E/Leqx6/9tT+sSMWWafu9rs5I9alxu6277qcWty+53uOGqRG3r7SbPofqduFVz78McsseB463p4mdkyt9/pbV+3LonaCz4dpJq4699s/BuvW9eYsdZ10Z+YfcRtSxNd7dfTc/ub2t3/bmOeXWlOk1rXghMs4fY3bTrwIBv4zj+7l2DZOqWPzBEC2QkU+xvlrabZU8vvW43fKF8KbV0Wy2epN2432+diX8zqHSd8cDCv59yWVQ3oEKcN2OhUubwEsJaWl+dopnbojL9y4nSpK0LlLWuH7P2XgaW2kvXV6p7VdME+pylxWsADeNYgg57HTB3cTuhzP3/Ftu0MLeSRNY6v5eBN/Z/WgtE4MRenkzoOs9kTz7T1Wx/wFavYUQ+g75l2eUXSr3b/y6iEE4OJL3zVep91+zTe9e82/pdPBPudJk91Ixay7HeqrWU0bzS52Ftel1rnTV8Kkt3hOlTX6W4O6xL3sLj3zIys5KH9TS28v+l7DwssuYmjFg6FT/19DHlxBoFCCdTbb5Svt8RpKXtr+/gVO/7avbiTOD3VfQH8ws0R3/xIxbIaTNj9WM1238eH/Mvg5S63zkIDOsRpAzY6VW4MAvtNbrVPHjnJPTG5d/f66IE82W//uHytbekaGlT2/rmT7cyj5mZA+fL96asC/sHBe9sJB6UP/Xvt7W779s9C8y4yUqktj8ljjnSi4A8rLgokCA6c/rnaglNAaVMLIhUQNi1IFkvSh2dOsH9b85Y99ebWtKCpi0BwpqtOf5UmTFMR3MmeAHGec+qLe9g+17p+6FaSTZfZ/nbZjnpJ0pzoKFt6sUzIicPk4R9wQ3fdvqX3uKG72u/05+58ySey7neamOHE5+c+7xZN+qjtcBbQwGlY8Lz52avn9zeVxXXXDuuaMce6zrt0cMhv6+DQ61REN9cUB4FSCfAbVSq5EcR7xH0/nrLT7IM/GUxk9afNNn57BAnmiPr++91c99BUnx/7X7Qc4evYG3Fax41L1RqbwKeOmmzXnrxXBoTHX3rHfvrC0Fy0JR+ca9eefURGuKg4/dLZ77cTnECNunoSp6rbkbO+Zm91/9x6+9+JVrVM10129Jxb6lIQBJbTvv6UCBweWOSHN3I5e2yb/fnK32UZJhwKGDnNKUpTBXER3L9aEKd6CJ0//b/bmk3/O1X6cp9M6Ty6vl6SOMtl8/fvsb7j/sASe7aA8cwSEolObCYWfMi6fuQs0svuSO13aud+0q2c6+aORoWkxKhbNCmX0/6m9lNnSbnXWWXd/qZdneOs6xN/Ygk35NfGu/mvWVyyu3vQtxb328pSH7yqT4DfqCozH3Av871QHLOfWe/blSnA8581W+Neiu1YW5n0ayhVXuHVUGNRVAhAoPIExrcfaCfO+6G1NI2vSGZHz7nV5kw6pyJpj3qiwVYy/ZZ0AjX4uCGMmoM69BncambQwhr23xNe8faE/+j3nnPDeXv3XOeIJyGsYZJpeQylMZhWJG6QhxtFUAPuA7Nvsv0mV2Y+6MSO97l+/lBdvSQZePklG/Oj+63pi1eY/aMTletfy2xlJxo1/zNx4zet67SzLfHWGzb+69dZ4q/+1OyXbs/SQp0LqzhBXJdGkJZLU2lnFaauLMmbv2rNP3kg2MMx0dpaaE41FW7Xrl2mD65yBPiNqhzbvClLOPbvecH0yleGgne7eeZyTy8aPOp/N1ItcI/PGjzq//4dg+ev3TTk58P1voUw3UMFy+lQ9+AMAhCAQEBAq5eecMAyW/HK2bZ7IMew0qJZJQKr7IHT6m84r0cxOOfUX+05ZhmyGwmReRlYRIP/Mu+FfBQiZS1NBU+dhEJGTrUXaw24hDXZwn2/af3JnW4u9L1lK7GE6UnzfmTatqaeXNMxx1rX5/7S7D43dPfxh63riccs8XG3Qm62/U7daruJz1y1Z9Gkwf1K7W//zHYuPNES5znx+p73ZkWT/N0aNzT4u9bx1GPB/S63P2oiy/6oPnLyXbe/6Q/us+T377bxu3e5Ib+zrPsctx/qUQt8kLo4SpD+6le/sueee85OP/10mzUr9EBeFzWMVyX4jYpBe6x380J/7xZQbN/HrHv1YIF2bTRbPsnts/wetzz3L4f8HnUjKca6kRjbfjHoJyH6Y2cfnHiM2dYiXorFoNrVKALitBqUyQMCEKg5AlpJ99T5K+2R355ou/o2jaj8TYl2O26/22zupPNGlE7cIycHZLWUXIwIxMhl7nqEAoZOo+H9rZQw9fn5G9EIketaGNbri6ztjY7f/2576vXL7ZV3vuW9Sz7uNe4E9+LlAWttnlhyGrGN2N5hiQ9/1JJu6G63G7qbeOCOvPudmhOhib/8W+v95RmWdPNLJ6z6qXWvejxzv9PQ/qbj3SuRroOOCFb+TXzAPVxmc25/02Rqf9NN1u2G/HZr65nhVvnNlk7M/cKitLfXDXPGVY0Av1FVQ507o91u+o8+YdfnXmh7Yer9+7uGhKn306tVhGmKRvgEcRqmwTkE6ojA2nezPyhs2bG7pFpu2Z6Z3mtvD81dLSnRmEeShen0g5615zb+ta3dfLv7KdkzTKeIck8f+yH7wOz/ZVM768tSkg2B9g/VkN2cLqt4zOo5lETkti4HRWnkho+Rw9vf1jHu+5yGyzp4nrCFc79pM8afHPTFnt5XM4Pk8WltmmgH7/3nwafeF0AKtnhx1k9bfLLb7/Rut9/p0mH3Ow3QSWQefqTb4/RRs3vcHFK332m32+80ec7gsOrEfd8d3N/UWT67zvtkkLa1ZBmau2d/04QTuuPXrrHuZGJwyO+eVX4L6J55WjIetxGl8WgHfqPi0Q6UorwEEknnypskqUGgMAKPPvqorVmzJlg+/NJL3RvlGLmenp5gXlCMihQU5fQbf2Y/f2WbWbN7KPKfpvC5e9/UpI/bHFqrQu5Zodf6+9xcBydKB9xHxz43J8h/dF1m96EDp9lDf7a4zKlWNrmxY8daYpghqN1OEKx563/bq5tvy7tYkiylcyadbe+d/t9M4rRU19fXZzt3ulUCa8R94F+ftB35XnkGT+dFPqK74IMxioiXFjTtwjr6kvbLy+L5sqClpcU6OnKvnqsXJK+9e5f9dtM/2aaen+XtGZqf9p6pl9uB0z47ImtpXL8T8wJQgJfdUNx73dBdNxRXC23k2u80lVZPlyV/5FZKdtvCjN/uvm+d6+p0w/K0/cxH/tANz8sxH93tbyrrq9/fdJeGCLshv5Zrld9UhvE8yfadmEuU6lHSf3+eeeaZDOsdhSYdjd+oUqo52t8l457I8fdbSmViFqf7OGehrbDL9xtVjuzzPUaUIw/SgAAEIFDzBMa17W9HuQVqPjD7a/bmtkfcir4rbMfuN4MhvwPJ3dbeMt06WqfbpDFHuOG7Z1dsQaU4gzxy4hj75Wa3WES6FowUOXIzchkJHLrcEzD9ELqf7TR74h+Y3JktcE34JazZLZL0ieCzffc6e/3d+6y793e2c/db7qXJ5qDfdbi+2Nk222ZNPMO06m/DOycOE9d8xQ3dXWUDbr/TCcF+pytt4NQzLZFtv1MnPhNnX2z2Ibff6QN3BvgSZ17otnnYOytK7W+adEK26ccP2PimhG2bf7g1XeC2nvlAPF+AZK1EHs9colTRsHHkgVel2/xGVQk02VScAOK04ojJAAIQqCcCCWuxfSacFnzqqV7lqMs3z39/OZIhjQIJdLbOsYP2cov64Aoj4MRik9vvtOtxN3TXbf8yIc9+pxKjiT9xq/jmcqH9TSdof9OZbn9Tty1N0wknW9Yhv7nSibF/PlEqa6k+YYH64osv2saNbmEYXAaBww8/3Nrb2zP8y+nBb1Q5aZLWaBBAnI4GdfKEAAQgAAEIQKD6BNw80cTJp5ktOM7td/p9s/vd0N273LYyy39opgWL/uDDmfudRko5uL/pT5zAdasCB/ubjreuiz/rhvx+3GycG/5bJ+7VV1+15cuXW3iho/DwXT+MN1pdidNc96JhG+36oIMOqrg4bTSm1Lf+CCBO669NqVEdE5jUmWUBjhjWd8rYthiWiiJBAAIQ2EPAicjEOW7o7vFu0aQH3KJJDy21cV+/3rp/8qDZhZ8yyzUkV/ub3vltG/fyaut2Q6y7Tj/XEmee74b8zqg7tPvvv3+wLcwzzzyTsoR6K2n4WHcVp0IQgMCoEkCcjip+ModAcQSuO/cw62h/yd7sdgscBQsfuT/h1AJIOncLISUGF0N68c1u69PKqUn3aXKrzOqjc/fPWtxcvH4Xrr/Vpne2294Tci/AUlwJzWZM7LAvLXlfsdEIDwEIQKD6BJyoTPzJ/7Dkyadbl1s0qW3lo9ak/U7d/qUW2r80+buXnKXU7W/65HJzi1Jb1yI3dFf3Dziw+mWuYo7ar1SfDRs2mBepUatoeEivirZkyRIWRAq1kSzJskDjIACBwgggTgvjRCgIxILAftPG2r99mgVOYtEYFAICEKgbAoHI/J9ftt7/OsPMLZo03q3s2/3UT23gY4N7Ezf94B4bp/1ND3bzqrXY0fuPrpu6F1KRfCI1KlgLSZMwEIAABLIRQJxmo4IfBCAAAQhAAAINR0CiM3nokda9cnmwLcyEH94TMAgWOzrvUreC78mWcNv9NKrLJ1IblQv1hgAEykegcb9hy8eQlCAAAQhAAAIQqBMCgfg84VRLfNAtmvRjt9+pc4lTtb/puDqp4cirkU2kjjxVUoAABCDgZp4BAQIQgAAEIAABCEAgQsCJ0cRZn4h4chkmgEgN0+AcAhAoBwHEaTkokgYEIAABCEAAAhBoUAJhkTphQv1sp9OgzUm1ITCqBBCno4qfzCEAAQhAAAIQgEB9EJBIxUEAAhAYCQHE6UjoERcCEIAABCAAAQhAAAIQqAkC/RM+VBPlbORCIk4bufWpOwQgAAEIQAACEIAABBqEwI5DH2qQmtZuNZtqt+iUHAIQgAAEIAABCEAAAhCAAATqhQDitF5aknpAAAIQgAAEIAABCEAAAhCoYQKI0xpuPIoOAQhAAAIQgAAEIAABCECgXgggTuulJakHBCAAAQhAAAIQgAAEIACBGiaAOK3hxqPoEIAABCAAAQhAAAIQgAAE6oUA4rReWpJ6QAACEIAABCAAAQhAAAIQqGECiNMabjyKDoEwgQULFpg+OAiUm0Bc+9Ytt9xi48ePz/jIHweBMIG49uFwGTmHAAQgAAEzxCm9AAJ1QOCZZ55J1SJ8nvLkBAIlEgj3p/B5icmVPdoZZ5xhXV1daZ8vfOELgWAtNLNly5bZRRddVGhwwtUYgXC/DZ/XWDUoLgQgAIGGIIA4bYhmppL1TuC+++6zSy65xE488UTTOQ4C5SJQi31LYvWQQw6xa665plwYSKeGCdRiH65h3BQdAhCAwIgIIE5HhI/IEIgHgVtvvdXOPvtsO+ecc0znYSerULahj/7BXfc2btyYiiLLgvy803C4cBrePzqkMpyGD8Ox9gmU2rfy9SuRqWTfkvXU/y2ob4b/BpSvd7KY6sXOgw8+GITxfxfDxfFxOdYGgVrtw7VBl1JCAAIQKC8BxGl5eZIaBKpOQMJRVqKZM2fa0UcfHZzLz7slS5akDXm87rrrgjDXX3+9D5L3qIf3NWvWBOkosB7gV65cmUr3tttus/nz5+dNhwC1RaCW+9YxxxwTwNbLlqVLl6b6r6yqBxxwQMqqescdd5j6rx8e7P8uhotTW63Y2KWt5T7c2C1H7SFQGQJ6IRl+WRl9kVqZXEtPNWoIUHmj6yromcy/WC09p/jERJzGpy0oCQRKInDXXXcFlh8fWUJSftmcrEGyKEW/2LKFDftJ0Er8eidLxA033OAvTQJYAjksilM3OalZArXct8L99corr0zrvxdccIG99tprw7ZLKXGGTZCbo0KglvvwqAAjUwg0AAE90/i1CnSul+txHv3lX56qzDIU6Dmunp+3EKcN8EdIFeuXgL5MNRxRQ3q905BF+WX7oj3rrLNMX8SysBbjZs+enQruFxTRl3n47ePzzz+fCsNJ7ROo9b7l+/+sWbOCxgi/fdYLnFdeeSVvI5USJ2+iBKgagVrvw1UDRUYQaGACehGpl+saLVMLTi9er7jiCnvqqadqobgllRFxWhI2IkEgHgT8l2lYKJ500klB4fw9X1IN+eXHs0UAAEAASURBVNBwRn0Rl8P5t47hoyyouPog4PtPrfatp59+Onjg0A+5XthEh6Hna6VS4uRLk/vVJVDrfbi6tMgNAo1LQM9G3oVfSuoFfHi4rIYEh68VR2HCVkzFD6/+Hk3PvzhVXP3OKK5/0S+/QpxG/oSNBoXEqaUwiNNaai3KCoEIAc2V0ycsEHUu66j8vZO1MzoU19/TccOGDanL8HnKM3TiLVHeghq6xWkdEShH3wr3pfB5Lkzl7Fuyjmrok/qprPqaW+rd+vXr/WnWYylxsiaE56gSqPU+PKrwyBwCDURAI2kk9iQ89bsRfqZ67LHHUoJUU0J07Z0XpWErpl6EKpyc0ou+GNUL37CLrukRvpftXHlqdFy5DA3Z8hhtP8TpaLcA+UOgRAL+Adov/BJORsN89UDuBaSsqXpQC8/D8+E1lyG8/YyE7XBOaSiOt9D6sNG3id6fY+0RKEffKrZfiVI5+pbKrrfQGvYkS35U8OqttR4+ok4/9t4VGseH5xg/ArXch+NHkxIVS6BvoMte2fzv9ssNV9va3r+0sQfdYmPnf93+6/f/zZ7b+EV7Y9vDlrS+YpMlfAUI+GcX/V7oJf7y5cvTcpHlU/767dDzlp6tvPVTolS/NWHBqt8S/1wWNQpkW59Dz1zZns3ChVCa3roqMRs2PoTD1ct5S71UhHpAoNEI3HjjjYFIzPal5h/yFWbfffcN0OgLLez0haqVSbWwkd7k6UtUTl960bDheDqXFcqveOfv1fuXpa9nIxzL0bdK6VdiW2zf8j/a4XbRW2/v9LegH3//MkVzi9RXwy9h/AODF7X6u8gXx6fPMZ4EaqkPx5MgpSqFwKaen9uLb91sG7Y+aAPJXakkWicPnq7rWm3mvp5+8/vrrK15qu0/5RKbv9f/sHFt+6fCclJ5AnpB6V9S6jdh1apVqZf50TU5/LVG/+hcL141bUS/GxKliqvfDglWhVF6+t3xxoGopTRau0KG5yrP8OgfPX9psbewXzTdWr5OJJ2r5QpQ9tol8Oijjwarjo0bN84uvfTSWFWkp6fH+NOIVZNUvDBjx461RCJR8XyKyaCvr8927txZTBTC1jiBlpYW6+joiF0t+E6MXZNUvEBx/E6seKVLzODNrp/Y6jf/zt7qXlF0Cglrtv2mXGyH7fOlhhCpo/1dImG3aNGijGGxEpN6iRl+uekbU+JTFlWJU1lSNTVE+8rrJZgEoqyvCxcuDPwVR0Nuh0vPp6s5pxLJErq5nPLT0OCwEPVpa+VeCWFv/fVboeVKqxz+1fiNYlhvOVqKNCAAAQhAAAIQgAAEGo7A61vuscdePr0kYSpYSeu3Vzd/x360ZoFt3fmbhuMXlwpHp3P4cnkLqLegSlB6i6lErpyEqYb4SkTqvlyu9IKb/DcsAcTpsHi4CQEIQAACEIAABCAAgUwCGsL781cvCARm5t3ifHb1bbIfr1nkRO7jxUUkdFkIyAKp6U5+CohPVFbQ8DQQL1I1PcRv46c5phKsmmbi7yu9Sq3PoTIpbeVRjw5xWo+tSp0gAAEIQAACEIAABCpG4Ldv/5Nb8OjzLv3yzY7bPbDVfvq7j9s725+uWLlJODcBv96AX3xIR63BEV0Z98QTTwwS8eLQHyUYw05DceUXTk9W1mKdX1vBp6P8w8N8i00v7uGZcxr3Fqrj8jHntI4btwarFsf5Vcw5rcGONMIiV2M+TylFHO15YqWUmTgjIxDH78SR1ah8sV979w5bufaPXIID5Us0lJIWS/rwe39qEzsODfnWxynfJbXdjtX4jcJyWtt9hNJDAAIQgAAEIAABCFSJQH9ypz27/mqXW2WEqarR2/+O23Lmr6tUI7KBQLwIIE7j1R6UBgIQgAAEIAABCEAgpgR+u+mfbGffmxUv3fqt37N3d/xnxfMhAwjEjQDiNG4tQnnqkoCWAvdzBcJH+VfT+b1Jw2VYtmxZNYtAXjEjoCXo/TL0xRZNqxKWs/+oHOG+qf6Ka1wCo/W9qX5Xynez77+FtFi5/3YKyZMwIycwkOy153//DyNPqKAUkm57mq8WFJJAEKgnAojTempN6hJrApoUr/2zwh/tb6WH8UKcREA5Hta16ly4DMPtr1VIuRSmXGUrND/C1R8B9e3XXnstrW/uu+++QUXpX/XX3oXWaKTfm8qnWv1Hi6lk2yOx0LoSLv4Eft+1vCCr6YaXx9rXLnt/1s8LqyYVXNENW79vuwe2FRyegBCoBwIt9VAJ6gCBWiWgBxm9Qdcb92psnlyrnCh3fRPYuHFjsAS/NhQPO/4mwjQ49wT43vQkOFabwLqthY00mjWvx/7iW/+VVjwJ1oe+OccOXrAlzX+4C1lqN279oe07+cLhgnEPAnVFAMtpXTUnlalFArKe3nrrrUHR9ZAeHtboN3OWVUnLmfvlxP0wzFzhS+FQSFqyQITL5y0S2cqmMkSH5fly+/L5oW0+TdUzGkZplMNi7PPkWDiBQvpEODW1p9pS8eSi7e/9w3F07pfhf/rpzO0TcvV9xYumH+070f6lOPnqpDR8f1T8bP0vmm+ueik/XGUIFPK9qZxz9Z98/UBxo31Bft5l61sKH+2D2b4zfRrhY/Rv55lnnkn1w/DfVDgO59UnsKl7ZcmZPvm9vW3RkuLnqm7qKT3PkgtLRAiMIgHE6SjCJ2sIiIA2b5bTw8jSpUtN1iM/7PaAAw4IHna0n5U2fPZD3LxFKVf4IMEi/8uXlh7IJUJ92byVK1fZ9JCmB0gfXkdtUh19eFOavs4XXHBBECZc9JUrV5r8cdUnkK9PhEskEaD+qnaW2FQ7q+18+6v/zp8/Pxwl7VzDzdUXov2jnP1LGQ5XJ+WtPurLrD6vPhx2xdYrHJfz8hEo5HtTueXqP8P1A8VTu2s/Qt8X1LejL8nC312KE3W5vjOj4aJ/OxLOJ510Uup7cfny5dEoXI8Sge2960rKWVbTLZvairKa+oxKzdPH5wiBWiOAOK21FqO8dUfAW41UMW30HL6WKNM8vFyu2PBKRw9d3jIUfiOfLy3FCz8kqZzDzVeVNTgcXnnrYU3+YUuTRImvs9J7/vnnA6Gu8Aona/Fw+SgcrjIE8vUJn6sE2yuvvJK2Kbja+YYbbvBBgjY85JBDci6gpLz0kkLx1C/VV4ZzpfQvpTdcnZRmON+jjz7arrjiirRiFFuvtMhclI2A/85QgsO1aa4M88XRi8Dw9476sr6Lcn13ZcunkO/MbH87GzZsCJLzdVQ/9OfZ8sGvOgR6+7e4+Z9bS8pMVtPDjt9cUtwdu4u3tpaUEZEgEBMCiNOYNATFaFwC/mFn1qxZAQQ9HHvxqDfzeugfzhUbProgUvihJ1dasurK6SGpEJcrvI/vH76U1uzZs9OSlBhYtWpV4CfrRlQcpAXmouIEcvUJn7H6kwSbbzP5+/aXpdT3ZR314mE4p74oS5VeaujBPmqp8nF9+r4/eX9/PVz/UthsdcqVZrh/+jDF1suXj2P5CIz0e1MlydYPfAkXLVrkT4Oj/57M17d8JN9XfJ/0/uFjtr8d3VccvcjR34yGBePiQWBniSJx2zut9urqCbbgo2+VVJFqbFtTUsGIBIEKEUCcVggsyUKgUAKaZ6cHET38aN5RdCjkcOkUG75aaQ2XT75755xzTjCEWeHEQkPrcKNDoJj+5R/GwyX1QyLDx7A1Khw2fK6Hc1lRZanKlm44bLHnxdQpV9rh+vjzQuqVKz38iycwku9N5VaOflB8qbPHyNbH9bJHfwN6QSmR6sV49hTwrQaBce3vsYS1Fp3VC6sm2/tPfLvoeD7C2Lb9/ClHCDQEAcRpQzQzlYwzAT18yEqkBxRZljRHyrv169f704xjseEzEgh55EvLW3ULfUDy4aMPXf56OGuC7vmhvQzpDTVSlU/z9QlfHPVdWYA0R873j1zt7+MUcvSWqmxhc6Wfr38NVyefpq+Dz1cvSLzzYXw+3p9j9QmU+r2pkg7XD3xNot+9vs2H++7ycXX0fSXan8Jhsv3thO/7kQQaYqxRJLjRJdCUaLX2lilFF+LXP5tihxz7btHxfATEqSfBsVEIIE4bpaWpZ+wI6GFHb8Q1bFVWF/8w4x+C9FCjh5ewk1jzrpDwPmy+Y7609JCkcp511lmppFS+8JCzcNl8eAmWsNM8LwmZfE553XjjjQzpzQeqgvfz9Ylw1mpXtZlf8EjtrwfqaPtrfl02p74Uvachl3JeDJSjfw1XJ1/mcB9X/47mW0y9stUVv5ERKOV7UzmG23G4fuBLp6Hq/rtYfoV+d/n4/jsw3J+i35k+3fDfjvyUbzhvTe0IDy/3eXCsPoFJY44oKlMN6X339x2mrWVKdRM7Di41KvEgUJMEEKc12WwUuhYJ6OFIYtR/9OCuIYF+5V09zHgLlMLooUYrnHonAevnIelBPl94H6+QYyFpqZwnnnhiqvwSIn7FzGjZlKfCqz6+vjrK2qGHvHxOQ3vFS0dc5QnoQTzcTprrWUifCJdM7S3hpnQk6jQCwF/7tHMN0VZe0TKo7+vvQ65c/StfnfyoBV/ep556KujD++67b6qqxdQrFYmTkgmM9HtTGUf7T75+oDj67tILMt8X9N1XyHeX4no33HemD6Nj9G9Hfvp9COetOuBGn8CcSUMvaAspjVbp3f/QbYUEzRlm9sQzc97jBgTqkUAi6Vw9Vow6xZ/Ao48+GsypGTdunF166aWxKnBPT4/xpzF6TSJxo4fD8CI7lS7N2LFjLZFIVDqbotLv6+uznTt3FhWHwOUloBdBsloVK0xKLUVLS4t1dHSUGr1i8fhOrBja2CYcx+/E0Ya1Y/cbdv9qLV5Y2KPzT24bXPDvw5fknqIzXJ3Gt8+3jx/y4nBBau4e3yU112RpBa7Gb1RLWo5cQAACEIgBAQlTWVlxEBhNAnpJIouuFqbBQQACEBjTuo/NnviHtn7rAwXBKFWU+sQPnPY5f8oRAg1DgGG9DdPUVBQC8ScgK5WGspUyhC7+taOEcSeg4cx+KKWOekGiocUaBoqDAAQgIAKH7XOt+7/yo2w6WmbYgdMRp/S6xiOA5bTx2pwaQyC2BDT3Sh8cBEaDgJ9zOhp5kycEIFAbBCaPOdLmTDrH1m25t6IFPnTGX1tzIn5D/CtaaRKHgCOA5ZRuAAEIQAACEIAABCAAgQIJHLvvt2xix6EFhi4+2L6TL7L3Tr+i+IjEgEAdEECc1kEjUgUIQAACEIAABCAAgeoQaGkabyfN+5GNazug7BnOnXSeHbffd8qeLglCoFYIIE5rpaUoJwQgAAEIQAACEIBALAiMaZ1pH5n/lE3p/GDZynPA1Mts0f53uBmtzLorG1QSqjkCiNOaazIKDAEIQAACEIAABCAw2gTaW6bbhw983GZNOGNERUlYs2mO6cK533TCtHlEaREZArVOgFcztd6ClB8CEIAABCAAAQhAYFQINDd12gnv+b5t6vm5/fqNr9ibXT8uuBxNiTbbf8ql9r4ZX3RDhPcvOB4BIVDPBBCn9dy61A0CEIAABCAAAQhAoOIEpo/9UDAPtWvXS/bq5u/a2s23W3fvK1nzndq50InSi23fyRdae8u0rGHwhECjEkCcNmrLU28IQAACEIAABCAAgbISGN/+Xjt8n78NPrsHttkLa1bZk884a2qy2ZZ8/FKbPnmeyWLaqG7MmDGWTCYbtfo1X+9EovJ7/CJOa76bUAEIQAACEIAABCAAgbgRaG2aYG2JOdbfPThkt7N1TkMLU7VPUxPL3cStn8atPPSQuLUI5YEABCAAAQhAAAIQgAAEINCABBCnDdjoVBkCEIAABCAAAQhAAAIQgEDcCCBO49YilAcCEIAABCAAAQhAAAIQgEADEkCcNmCjU2UIQAACEIAABCAAAQhAAAJxI4A4jVuLUB4IQAACEIAABCAAAQhAAAINSABx2oCNTpUhAAEIQAACEIAABCAAAQjEjQDiNG4tQnkgAAEIQAACEIAABCAAAQg0IAHEaQM2OlWGAAQgAAEIQAACEIAABCAQNwKI07i1COWBAAQgAAEIQAACEIAABCDQgAQQpw3Y6FQZAhCAAAQgAAEIQAACEIBA3AggTuPWIpQHAhCAAAQgAAEIQAACEIBAAxJAnDZgo1NlCEAAAhCAAAQgAAEIQAACcSOAOI1bi1AeCEAAAhCAAAQgAAEIQAACDUgAcdqAjU6VIQABCEAAAhCAAAQgAAEIxI1AS9wKRHkgEAcCbW1tlkwm41AUylAlAolEoko5FZ5NU1OTqS/iGoeA2jyOju/EOLZKZcsUx+/EytaY1CEAgTgQQJzGoRUoQ+wItLa2xq5MFKjxCCBOG6/N41pjvhPj2jKUCwIQgEB9EYjnK9r6YkxtIAABCEAAAhCAAAQgAAEIQCAPAcRpHkDchgAEIAABCEAAAhCAAAQgAIHKE0CcVp4xOUAAAhCAAAQgAAEIQAACEIBAHgJ1Med0y44B+8cn3slT1dG//afHTbVJY3gfMPotQQkgAAEIQAACEIAABCAAgbgRqAtx+ql71tsDL3TFjW1Gef5zww5bduncDH88IAABCEAAAhCAAAQgAAEINDqBujDjbdnZXxPtWCvlrAmYFBICEIAABCAAAQhAAAIQqCsCdWE5zdUiP7h4Lzt+345ctyvm/7PXdtrHbn+rYumTMAQgAAEIQAACEIAABCAAgXojUBeW01yNMhrCVGUZrXxzccAfAhCAAAQgAAEIQAACEIBA3AnUtTiNO3zKBwEIQAACEIAABCAAAQhAAAKDBOp7WO9L221iR/X199adA/QvCEAAAhCAAAQgAAEIQAACECiCQF2L04vufbsIFASFAAQgAAEIQAACEIAABCAAgdEiUH2z4mjVlHwhAAEIQAACEIAABCAAAQhAILYE6sJyesTBE238jDGxhewLdsDkNn/KEQIQgAAEIAABCEAAAhCAAARCBOpCnG6f3Wkbp1R/y5gQx4JOZ3RiqC4IFIEgAAEIQAACEIAABCAAgYYjgFpquCanwhCAAAQgAAEIQAACEIAABOJHAHEavzahRBCAAAQgAAEIQAACEIAABBqOAOK04ZqcCkMAAhCAAAQgAAEIQAACEIgfAcRp/NqEEkEAAhCAAAQgAAEIQAACEGg4AnWxIJJZ0v1zn9i7Wihj7CFSQAhAAAIQgAAEIAABCECgDgnUiTitw5YJVWn79u327rvvhnzq41T1wkEAAhCAAAQg0JgEBgYGnG2hvl/cq47e9ff3mz714JqamiyRSNRDVahDzAggTmPWINmK8/rrr9vy5cuz3cIPAhCAAAQgAAEI1CSBHTt21L047e3tTbXNzp07raWlPh69Ozo66qYuqQbiJBYE6uMvJEBZ32/eYtFbKAQEIAABCEAAAhCAAAQgAIEKEagjcVohQjFIdu7cuXbmmWfGoCSVKUK9vEWsDB1ShQAEIAABCEAAAhCAQGMQqA9xKqNpLRhOSyxjZ2en6YODAAQgAAEIQAACEIgngccee8zCw3hVyvDQ5RUrVlhzc3Na4WfMmGFHHHFEmh8XEGhkAvUhTgNlWqLyq2rr10IZqwqEzCAAAQhAAAIQgEBdEJgyZYo999xzGXXxCwe9/fbbGfcQphlI8GhwAuxz2uAdgOpDAAIQgAAEIAABCIycwEEHHWRtbW3DJhRenXjvvfc2WU5xEIDAEAHE6RALziAAAQhAAAIQgAAEIFASgfb2djv44INTccNC1Ht6K6qusZp6KhwhMESgPsSp9siqlc8Qe84gAAEIQAACEIAABOqIwHDWU4lVL1ixmtZRo1OVshJAnFZb1Ja1+UgMAhCAAAQgAAEIQCAuBMLWU1lJvRhV+XTtLadYTePSYpQjbgTqQ5yKarVFZin5xa31KQ8EIAABCEAAAhCAQFkJZLOeYjUtK2ISq2MC9bFa78CAmT5xd7VQxrgzpHwQgAAEIAABCEAgxgS89VQr93rrqbeYqthYTWPceBRt1AnUh+W0FCvmaMUZ9SanABCAAAQgAAEIQAAClSQQtZ764b3MNa0kddKuBwL1YTmV0KwFq6TKiYMABCAAAQhAAAIQqGsCUeupryxWU0+CIwSyE8ByWm0LavZ2wBcCEIAABCAAAQhAoI4IRK2nWE3rqHGpSsUI1IflVFbT/v6KQSpbwgPNZUuKhCAAAQhAAAIQgAAE4ksgbD1VKbGaxretKFl8CCBOq9kWtTD0uJo8yAsCEIAABCAAAQjUMQFZT1944QWbPHmyzZgxo45rStUgUB4CdSFOxyfcXM4asJwG5SxPu5EKBCAAAQhAAAIQgEDMCXjrqYb04iAAgfwEEm71sJpfpaerb8D+Y93W/LUd5RCfmDPRxrfUxzTfUUZJ9hCAAAQgAAEI1DiBnp4et019zT+G5m2FXbt2mURqPbmOjg5raakLG1c9NUtd1KUuxGldtASVgAAEIAABCEAAAg1EoFHEaT02KeK0Hls1HnXCjBePdqAUEIAABCAAAQhAAAIQgAAEGpoA4rShm5/KQwACEIAABCAAAQhAAAIQiAcBxGk82oFSQAACEIAABCAAAQhAAAIQaGgCiNOGbn4qDwEIQAACEIAABCAAAQhAIB4EEKfxaAdKAQEIQAACEIAABCAAAQhAoKEJIE4buvmpPAQgAAEIQAACEIAABCAAgXgQQJzGox0oBQQgAAEIQAACEIAABCAAgYYmgDht6Oan8hCAAAQgAAEIQAACEIAABOJBAHEaj3agFBCAAAQgAAEIQAACEIAABBqaAOK0oZufykMAAhCAAAQgAAEIQAACEIgHAcRpPNqBUkAAAhCAAAQgAAEIQAACEGhoAojThm5+Kg8BCEAAAhCAAAQgkI/Aw72t+YJwHwIQKAMBxGkZIJIEBCAAAQhAAAIQgEB9Etg0kLBlve31WTlqBYGYEUCcxqxBKA4EIAABCEAAAhCAQHwIvNDfbD1JM4lUHAQgUFkCiNPK8iV1CEAAAhCAAAQgAIEaJSBR6q2mt+/CelqjzUixa4gA4rSGGouiQgACEIAABCAAAQhUh4CE6X/s6khZTJ/ta7H7e9uqkzm5QKBBCSSSzjVo3ak2BCAAAQhAAAIQgMAoEejp6bG4PYZKkK4baLbX+pvsR7vbUsI0jOjg5n47vnW3TW9K2kHuvBwunO92Gxo+3GlJ27d5oGz5lKOsSqOjo8NaWlrKlVys0/m3Nc/Ztt29sS6jL9yCvWbawr1m+cuaPI6oV91000129dVXp1X8xhtvtM9//vNpfqVeKJ2bb745Nl9c9957r335y1+2X//616VWiXgQgAAEIAABCEAAAjEl8GJ/i2ll3tedQN2ew3yjOaibkk02LTFgn+nYGYhUX53u3gH7wUs77ME12+1nr/falh2D4nWvsc2297hm239ysx25T7sdMrfTbPoYU1rKU+J0ODfW6VUJ4iVtu0znuOoReLV7q23etaN6GY4gp6R7mVHr4nREllOJ0xUrVtj9998fYNywYYPNnj3b7rnnHjv33HNHgDaeUc866yy7+OKLK1o3CeDbb789xTSeJCgVBCAAAQhAAAIQGBmBOFpOwzWSSI3OM+10wlCC9KiWvnBQW7ulz/6/n2+1O37dY82JhLl/1rTHAiotKe0ZfNyAxQF3PuCOHzhikr3v6On2bkfh29RImH6lsydNEKcVpEoXjWQ5/X+fXVEz4nTehMl21aHHVKkXVCabEVlOo0WaNWuWXXXVVbZy5cqKCrhovtW4lvBetmwZorEasMkDAhCAAAQgAAEIjDKB09p2B0Nq/377mKAkEqZ/FxGGL72z2256cpvd+5vBwbjtzU2BOG2SQHWxJFK900S6ASdRB3R0F7/61Vb75XNb7PgPTrZjF063+W0DdnDL0DDhuU39gQX3hb7mYIixLLmysP7jjjH2d2O3+2Q5QqCuCJRVnIrM2rVrbfHixSlICfdXuX79epNwlVu1apUtXLgwbaiu9/ORfHg/PFgWWrnDDjvMrr322mBo7erVqwM/Hza42PNfdLixD5Mrn1z+4TTvvvvuQHiH/WTlPO+881Je3mJcap2vvPLKQAArQaUhoe/rHq1T+J7Cy6or7rJkS0TLPfXUU4ElW9Zs7+I2t8OXiyMEIAABCEAAAhCIG4HB+aV99rPdLXZxe/oQ3p+9ttP++w8324at/dbSlLBmfdzzmz4Sp8Gqo06cSp86TemefXVMWr87Spz2J5LW7I5PPLvFfr16m1334Ul28KFj0xAof30+0tZrf7+904nVJnvNfVa48ixuTbfepkXkomIEPjpnnn10zntypr+jv8/+YtWjafe/tuBkG9NcXtlVSxbdNBh5Lsq6Wq/EmoSRF5V58g5uyyIpsSoBKeEkQTWckxh8+OGHg7ASaKeddlpacOUtgaa09JFglDjLlU8u/7RE3cW3vvUtu/DCC1PeEosqi89H5S/U5cpTw6NV3iVLlgTpemGqOmlur89Lx0ceeSSDs8Jcc801QTjN/RVX8fHxlG4xbVNofQgHAQhAAAIQgAAE6pWA5nrKhcXgCidMP3Hv2/bGtgFrc9ZSfdqb3EdH/2lpso7gvDk4hs8VNoi35yhx+y/PdttP1+7MilHDeT8zZuie5qni4kkgmwjN5jfS0k9tH7TojzSduMUfcc+WGJWVzzuJq2KcF3XesrpgwYJho0t0+bASi1owKex07dOUv+a+HnrooXbbbbcFwXxcn4+spnJR/8Bzz38+jI8jbwnBsJBW/ELn2fryDZdnOH/VKZyX7n3jG98IxOef//mfp8ouse7LeP755wdllKXZO82X1YJOOAhAAAIQgAAEIACBwgjIcjm3STNFB91zb/baRfdssr7+hLU2u48TmK3uWThqPdXjsQb36ik5sJy6//2Q3r49VtPT5rXbNYvH2pyJg4/kb/UM2OpNfXbo9MxH9H1DZdg0MPTs7cvFEQL1QGDEllNv5fPWOS3moyGmhTqJKYlHCVxZXvO5OXPmpIL44aqyRMp5ESl/pec/GgI8b968rPkUkv/1118fDCf2Gft8vBD0/oUeC8nTp5UrL5+3F7oKP3fuXB8tJVjDvFI3OYEABCAAAQhAAAIQKJjAFzsH53i+vX3A/ui+twNh2uaEaZssn87qmbKeequpO8pSGlhLUxbUQatqYGV19859X6fd+vGJKWGqwuw11sVxW9RscvlEXViQdjpxi6sOAa9x/HHwVcPwefuw/jh86NLuaoi4Tz98LC21+MTKfC0zwrJpWKmGk0owestgviS1NYvCe7EpwVVo3Gxpq4GyOVk2s+UzXP4KX4mFkIbLM1vZ8YMABCAAAQhAAAIQGB0CfvuWrz6+xd7s7g9EaYssphKmOjqxKctpi7egumOwKFJgPU2fb9rvnlPHdCTsLz7ktpPJ4t4zpcUeeHGHLTk4/b62nfFO1lwcBOqRwIgtp4VACVv31q1blzWKxKhEpSyxWnyoFOfFrbc2ZksjVz65/LMthOTzkXDN5cpVZ59XtE7+2ltQc5UDfwhAAAIQgAAEIACBkRNY41bm/c5/9TgBOihKJUyDIb1OmHqRmppv6vx0PjjP1B2d9TR1z4nZQ/ZqsfHtuR/Dz3hvh/1m0+BcV1/yH/e2+dO0VX1TnpxAoA4I5P6rKLFyl19+eSAwveVTYvPOO+9MpRad8yiR5YWWAr388stW6lBU5an8ZLkNOy0ClCufXP4+fnQhJPkrn+hiTBKqfljySOvsV9sN5xWtkzhr/i0OAhCAAAQgAAEIQKDyBL7+dFewIm9gIQ1ZSXUtkZoa3uvO04TpHqE6tbPVPnVUh93wsbH2l8cPv5iNVv799Zu7UpV6tq8lWKVXHgc5q2l4/mkqUIOdPPfcc9bV1dVgta7/6o5YnPoFkfz8zlNOOSVtL9BbbrklWLTI3w8v0OPxSnj5+4pf6MJCPn74qBVvJQ59ejouWrQoCJIrn1z+XjRns05qJV2V1ecjC+exxx4b5DOSOvsFnJSuX1lXeUmI+rx0vOyyy1L3w/XnHAIQgAAEIAABCECgvAS27Rpwe5n2uG1ibM9ncAGkQJi657LAiuotqO7o55V6y+mUMc329SXtduHhrXb4jGabMT7/I/jH3jvGdvQlg71Nb9/VnqrQ2e29qfNGPnn11VeDBU+XL1+OSK2jjpBwQ2mzT9Cso0qWWhWJQy0y5EViqekQDwIQgAAEIAABCEAgnUBPT08wpSvdN55XD760wz619O3UMN3UEN2QEE1tDSNLqvPX/FN3GhgXrjiu2Y6clV+QRmv/0Ms7bMOcKcG+prr3gZY++3xoS5lo+Gpdd3R0WEtL2ZeuKar4MpBt3LgxFeeggw6yo48+2saPH5/yK8fJ3/zicdu8a0cqqY/N1T6n81LX2U6uWPlwmveti9K3vky7WeLFzauftt9u3ZwWe96Eyfb5w4bf+SQtQgwvRrdXxRCIL5KG6Ua3pfH3OEIAAhCAAAQgAAEINA6Bla/vDBY40iJH0U+z89NHYjRsQdVQX/lPG5coSZiK7jMtY+zl3YOP651O6H6mY2iv08ahX1hNX3zxRdOnUiK1sFIQaqQEEKc5CPoFknLcxhsCEIAABCAAAQhAoAEIvDbQZPP3H2v3HzgmZQn97Tv99u1nd9quvkFh6gXqkEgdXCRJeKalL7pbMLEbXkvay9MmpMJrOxu/anDKk5OU9V3T3uQQqbXdKRCntd1+lB4CEIAABCAAAQhAoEIEetzkt3/d0WEnTOm34yYNZbJgttmZB7XbVT/cbuveHXBDdy0QrhrGK8uqrKjerd/qzwo/3vVukz03dWwqwp84iymLIKVwpJ14USpPzVb01+USqUozPAuykAmR4fAql4YFT2kffhEshSvU7ejvs7d3bE8rV6Fx4x4OcRr3FqJ8EIAABCAAAQhAAAKjQuC67Z3BKrlaiddJn7QyaCuYa47vsCu+t928FE24M+nSkDa17b1J+9XGpB0+04dKSybj4jubmuyRMUPC9OL2Xba4tS8jXCke3d3dtnTp0lKi1kQcL0zLKlIj4jTaD7KBiYrTv3r6sWzByu4XzbfsGVQhweJnZlehUGQBAQhAAAIQgAAEIACB0STwXbdCrob0yrnFerO6A6e1uJV3mwPZKunqbGyBNWsgYl777i+Ttn5LurjNluD/WWdpwnTXui47rS19v9Ns8fBLJyCRGhVqsqQ+/fTT6QELuFJbhj+Rps2aQjh8tc+zFqiGPLGc1lBjUVQIQAACEIAABCAAgcoTeKG/2X7U2xpkpIWIdm9xe45Oasua8SnzWu0X6/sD8dnv9Kc+fU7BtIXMp7KeXvdo0ha/x+wIZ0EdFCyDYnbAhde1xPCm6UMW09WPvWELE27bmEOmZs23FM+2tjY74ogjSomaFkcr9Ta5BZ9G073wwgsmS3Au562ouj9//nw75phjSlrJ179w8PnoOp+LCuN84ct2vxDlXLbMKpNQ3YlTbfuydu3atL1WK4Mu/qlqf9QVK1YELOAS//aihBCAAAQgAAEIxIPAv+7sSBVEK+Ru6utPXUdPLj2yzS490uyVzf32d8t3W+9uNwfVnHBLDlizGw6swbwSoP1OODy0JmkPvDBgvf2Dn13uuLvZbOqHptqYvYfyfOGnb9q657fYeceVd1uUconTOGwlo501hhOnaqeRiFLfzhKaaWIzvzZND+8SumDe+2zOuIk+yYzj99eusTVb3kn5HzdjjumTy23v223/d/UzGbfrQJtaXYnTe++9N2ik+++/P6Oxoh4Ke/vtt1dcxFYrn2j9otcSqv7Dvq1ROlxDAAIQgAAEIACBQQJLd7XZpoHB+aHaV/Qo93miwynIPO6AKc32NyeZXfNQr7OtDThB6iSqS0cGVIkGidM+p1J3u4+O+rRMb7Ppi6ZaU9ugFbK/d8DW/PT3tvF32wJBe8p7yreITp7i1+xtCcewlVQVKYco9UCi4rQUy6mE6fxJuS3ga9y9F99922dpUzvGDBteAdME856YhZQtlUlMT+pKnH75y1+2hx9O3/Q2ptxHpVgSpfrjRZyOCn4yhQAEIAABCECgBgj8vG9wOK+K6vcVPXpWu7vKbzLb3wnUWRMTtm7LgPU7q2nTngWSvDj1ArXPPYGPWzDZOmYNic8d7/Tai4+8YdvcEGIN8x3fnrDBfGsA2igWMSxMyylKfZXUdmlCMH83SA/vExruWKY80so5XH4xvjeiweIyp6tD+M9hhx2WVtWzzjorsNZ5UaRwxYZZtWpVKn3FV57ZnMLNmzfPtD+pd7niqlznnXeeLVu2LE2sqWyydPr6KJ1onj5Nn4eO4TgKr2u5XPkUkma2sihNWT99+aLpDMdZceVuvPHGII3BK/6HAAQgAAEIQAACEPAEnnWq0VtNj3cr5Pp9RVvdE/P312z3wYY9HjUrYRquu6vPfdxxpzvu1PWeT9OcDpt02l5pwnTzy132wkMbrGdbb2BhlYj95PvHBkOCh82MmwEBidJLLrnETj755JLmlQ6H0VtOU8cCXlKkwrp2HBSMwytaWTzT4pSQR5CPlHSNuxGJ07vvvtvWr1+fgilxGLXKXX311bZo0aK0MBJtYZcrjITowoULU3k89dRT4Whp53feeaddfPHFKb/h4mrY7z333GNLliwJyiXB551Eq6+T9xvuqLiK4zuU4no3XD4+zHDHaFnEVnNIfV6qw+zZbqMt53TvkUceSd37xje+YeIadccdd1yQRtSfawhAAAIQgAAEINDoBF7rH3o0Pr41fZXcY+cOWTmH47SxK5kSohKlg8K03wamttr4k6bZuKMnpYbx7u7ps1d+9Ka9suIt27mzLzXct9WNIv5/jpkwXDbccwQqKUo94OSAG6Id+gQi0N/McQyH13k+zag0w3FKySOIny+jHOWNk/eIhvVGhajEoeZxhp0E4LnnnpvyuuWWWwJBJfHorZy5wvzxH/9xEM+HW7BgQSqd6IkWQbrwwgtT3l4kFhI3FcmdyLLo44T9c51LAIZFs+KG65srXiH+0bLcfPPNgXD2cZXPoYceGlhqdS9cDrG66qqrgsWhfHgdJWZffvnlsBfnEIAABCAAAQhAAAKOgFbp9e7g5vRFkKZ3Ntn3nPX04+/NLVK73Z4zj73aG4jTJjeaTtujtk5us/HvG59mKVUem1/YZm88967t3D4kSvuckNFKv397wkTbZ9xQWXyZOA4ROP300629XcOtK+v6B/qtv3+oLyTdXOF8Lhw+CJtHNCrNcJyS8nAZDbiXIbXuhl4PlViT8DBTWfqiwmfx4sVpKXvh58WjbuYKM3369EB8hYfKpiU2zIXEmYRbsXHnzMm9MlY0Ow3xlRtONEfjFHMdLovPS+IyPKx39erVKebRcsydO7eY7AgLAQhAAAIQgAAEIDAMgdMP7LS1W/pyhvhfK7fbO05saghv276dNuUPptn0U9OH8G7//U57aek6W7fqbdvhwmqBpF4nSnXU54T92u0KrKY5Gfsb1RCmymvAtclIrZr55Gz5LKe1L05HZDnVvEgN5fWmZ8211KJE5XS//vWvg3mmfviqRK0XuPnyGUncfGmP1n3POpy/F65hP84hAAEIQAACEIAABIojsG/zgL24x3qq+adaqTfsNPe0pTlhP/7dThvXNrhNjKyjG7cN2P99ZodtbW2xaUdNsolzx1rruPTH7J2be23jM5ut643tg3uhOtHjLaWBMHWCdv60Fvv2WdPCWXI+ygT8sF5fjGzP4v6eP0rMprl8llN3PxynpDxchoVYXNPKFcOLki2nEkSy2oW3bVm3bl1GFV9//fU0Py+kwla+fGEkRtVIGv6rea7Z3H777WfZ8i8kbrb0wn5hK284Dy+Ycy3SFE4jep4rzWg4f+3z8vy8v47+XrQcmp8adcpXLxRwEIAABCAAAQhAAALpBMJiVHud/mx3usBU6DkTWmzOxBa7dOnbduEPtthnn9xl/2drq005daYd9IezbNohE9OEafebO+yVR39vzz+w3jZv6EnNRw32OnUC1e95Or4jYXdfsJdNaC/58Ty9MlyVhUDYaqrzfMJRe5BmxMlTku5et0KzS9t/8uWh5HzYtKPbW7fWXeZfXIE18oJIYklCU8JI8y81lDbsNBdSc0G9GL388suDeZ2FhPFCzMfVkOHwokfhNLTokua7+vmehcTVar35nASxFlvyZQhbhiV8Na/ztNNOM1lp5cThySefTJVDftF8hktT4bM55aV4WiAq3GE171dDq3UvXA5ZsZWv/MPuiSeeyBhGHb7POQQgAAEIQAACEGhUAppnqlV6JUp73FjMf3EC9f7epM1t6jdZVb17YewYO+3TE21bU3Yh2ef2K313bbet/893bVfX7j1rrzrrmEtT28T0u6NW5O0PrKdJ+9B+bXbb2dOzClPNg93u9kwNC2dfDo6VJ9Dn5pv29Q1Z0O/4zS9Nn2Lc3zz+UDHBg/SLzUMZhOetFpVhjAJn/4sqoIASS1qwR2JJcyAljLR6bNQpzPXXX5+aJ3nKKadkrOg7XBifvvJQXC8+o/nIX+I1bD0cLq5fTEjpRhd2CqetBZwksP08z2uvvTZ8OxCGKpe/L9F+7LHHpsJkyydfmqnIkRNZqSU2fV46SpTLeQu2v7dy5cqMlwAKpxcI559/vk5xEIAABCAAAQhAAAIRAtrb9Ky23pSvtpbREN+lu9pSHwnGqDDd7RZD2vjiVnvu4Q224lu/tdWPvWFb3Z6lfhsZbSnjt5Pxx/FuPZ9bPz7FHrho76zCVIV4oa85baGmVME4qQqBfidMJU5r4VMP4jThrHDu3U1lnLaM0WJHw4m/QsIUWjpZCyXKwlvDFBq3EcJ5LsO1RyNwoI4QgAAEIAABCIw+gZ6enrTRYKNfovQSvDbQZD/qbQuE6fYsT8vTmpImS6usqjP7++yeJzfbHb/qsc07BtwqvYPzUd3BuYR2sXQTAp3V1F3JcrrfpFa3Vcw4+6PDx1lnaxAoPfM9V7Le/s32scHVVzp7UvuuZg1cRc+Ojg5raSl5AGYVSzryrD71wH/YWz3dI0+oCikcttc+9g+nfLwKOVUui7rqVbJSSpxK8HpLYuXQ1VbKEqTabgcutdVulBYCEIAABCAAgdEhsG/TgMmKKieR+PrA4NYu0S1mfOkOP2myfcV9Hnt1p/107Q77zzd6rc+N3212Cyjt1dlsMyc02xEz2uzwvdvtvVPzP4Irz//Y1WGy3Mr9444x9qdjdsRGoPp61/uxvy99WG+c67vfxMlxLl5BZcv/l1FQMvEJ5K2D8SlRPEoCl3i0A6WAAAQgAAEIQKD2CIx1+jCXKI3W5sT9O0yfUp2GEP/SfTR02AtTpaXrP+sZF8w9/YBbRZg5qKUSLi7ebedcUlwEQo+IQEWH9Y6oZESGAAQgAAEIQAACEKhbAnEf1jta4P0cV4lUv62NL8tcZ82VKD3KLdoky+5ouUYa1jtajBs1X8Rpo7Y89YYABCAAAQhAAAKjSABxmh/+d3e1u3mvrUFArSLshxnnj1nZEIjTyvJt5NRLXq23kaFRdwhAAAIQgAAEIAABCFSawB+173ILLg2YFl+KizCtdJ1Jv7EJ1N2c08ZuTmoPAQhAAAIQgAAEIFBPBJhbWk+tSV3yEUCc5iPEfQhAAAIQgAAEIAABCIwSgeNbd9t2tx0NDgKNQABx2gitTB0hAAEIQAACEIAABGqSwHQ3pDfYJLUmS0+hIVAcAeacFseL0BCAAAQgAAEIQAACEIAABCBQAQKI0wpAJUkIQAACEIAABCAAAQhAAAIQKI4A4rQ4XoSGAAQgAAEIQAACEIAABCAAgQoQQJxWACpJQgACEIAABCAAAQhAAAIQgEBxBBCnxfEiNAQgAAEIQAACEIAABCAAAQhUgADitAJQSRICEIAABCAAAQhAAAIQgAAEiiOAOC2OF6EhAAEIQAACEIAABCAAAQhAoAIEEKcVgEqSEIAABCAAAQhAAAIQgAAEIFAcAcRpcbwIDQEIQAACEIAABCAAAQhAAAIVIIA4rQBUkoQABCAAAQhAAAIQgAAEIACB4gggTovjRWgIQAACEIAABCAAAQhAAAIQqAABxGkFoJIkBCAAAQhAAAIQgAAEIAABCBRHAHFaHC9CQwACEIAABCAAAQhAAAIQgEAFCCBOKwCVJCEAAQhAAAIQgAAE6ovAggULTB8cBKIEzjrrLPv85z8f9Q78DjvssKz+2cJHAyrdm266Kepd19eI07puXioHAQhAAAIQgAAEIDBSAs8880wqifB5ypOThiZw8cUX280335zB4JFHHrHVq1fbhg0b0u7Jf9GiRWl+XAwSQJzSEyAAAQhAAAIQgAAEIDAMgfvuu88uueQSO/HEE03nOAiECRx77LHB5apVq1LeEqQSpoceeqg9+eSTGf4+TuoGJwEBxCkdAQIQgAAEIAABCEAAAsMQuPXWW+3ss8+2c845x3QedsuWLbPx48dnfK655prAb+PGjangsroqbNhpqHA4DX/vlltuSUsznI4PwzEeBGbNmhWI0CeeeCJVIAnSJUuW2CmnnGIrV65M85dgVRzvNHQ3kUikPlFLq4YA+/vZhgn7dOrhiDith1akDhCAAAQgAAEIQAACFSEg4XjIIYfYzJkz7eijjw7O5eedBEhXV1fqc9111wVhrr/+eh8k71FW2TVr1gRpKLCErQSNT/e2226z+fPn502HAKNH4LLLLrMVK1akCnD77bfb4sWLg+G7GsbrndpVgtU7CU/FSyaTweeee+6x2bNn+9t29dVXB2n4+/PmzTPNRa1Xl3AVTdZr5agXBCAAAQhAAAIQgEA8CfT09AQP4/Es3VCpLrrookAcXHnllYGnLJoSGHfcccdQoD1nsm5KRC5fvjwQsrKSSnRK2MrJcnrSSSelRKj8ZDmVOPXpyy8az4f7whe+EFjjdD2arqOjw1paWkazCLHLW0N6Fy5cmOrTsnSuX78+KKfEps5lLZXl89prr7Vzzz03uOfDhS2pPowErtz9998fHPWfrKrh9FI36uSEXlUnDUk1IAABCEAAAhCAAATKS0Bi88EHH7QbbrghlbDEpESi7nnR6W/KoiXLqSysxbiwpcwvuISltBiCox/Wr+Ts552Gh+7Kuq5hvppnqnmoXpj6sOH2j9ZE1tew8yLWi93wvXo4R5zWQytSBwhAAAIQgAAEIACBshNYunRpkGY2oah7YWunhuIecMABaX4jKZCG9OJqi4BEqJ93Gh66K4Hp550qTNTlGsjqLafR8PV8zZzTem5d6gYBCEAAAhCAAAQgUDIBzfXUx8/99EdZR+XvnaydWigpbGH198KL24TP/f3o0VvGvAU1ep/r+BLQljKaP6pPeKuY4447LthqRgI1bAn1FlNvQc1Ws9dffz3N24f1ltq0m3VwgTitg0akChCAAAQgAAEIQAAC5SUgcfj888/bMccck5GwVu7VPS8gNY9UYjU6zPeMM85I23pGojafUxqKpzTDTpZZXLwJaNiuFsvSJ7xVjBeS2gtVQtU7vYiQJVVzVcNOiyR5pzhekMrv8ssvtxtvvNHfrrsj4rTumpQKQQACEIAABCAAAQiMlIAEgERiVHAqXS8gFcaLRi1qFN5SRv6ypMqi6v01V7UQp8WWlLePp2NUwBSSDmGqS0BiU3NNw/NNfQn8cF4vVL2/FjvSPb9VjI5hq6v6mFZ+9vc1XDgsXn069XJktd56aUnqAQEIQAACEIAABGqIQK2s1ltDSKtWVFbrrRrqhssIy2nDNTkVhgAEIAABCEAAAhCAAAQgED8CiNP4tQklggAEIAABCEAAAhCAAAQg0HAEEKcN1+RUGAIQgAAEIAABCEAAAhCAQPwIIE7j1yaUCAIQgAAEIAABCEAAAhCAQMMRQJw2XJNTYQhAAAIQgAAEIAABCEAAAvEjgDiNX5tQIghAAAIQgAAEIAABCEAAAg1HAHHacE1OhSEAAQhAAAIQgED9E1i2bFnaPqHaK7Re3C233JJRN9VP/mGXLVw0TDh8I50fdthhpk+lnPYiDe9HqnPtVVopV+n0K1XuaLqI0ygRriEAAQhAAAIQgAAEaprAggUL7LrrrrOurq7U57bbbjMJ1npxZ5xxRqpuvp5f+MIXAtEarmM43Jo1a0xh6olDuK6Fnq9atSoVNHye8qzAyU033WTJZLIsKd9777121llnpaVVzvTTEq7yBeK0ysDJDgIQgAAEIAABCECgcgSuueaaIPGo6FiyZInpU89OIvWQQw4xzyBa15kzZ9oVV1xhTz31VPRWQ13feeeddtlll9kpp5xiOsfFhwDiND5tQUkgAAEIQAACEIAABEZI4NZbb80Y3poryeiw16ioe+aZZ9KGz27cuDFI6qKLLgry0FHDafVRWN331zpmc8PlmSu/bOnk8pNlVAxyuddee81mz56d63ZD+N988812/vnn24UXXmg6jzpZJWWJ9ENlNRw3OgS4kDDhdJWWPmEnC6jS9h9dy23YsCHlF81b+Z533nmB9Vv3fJrZ0lcdfNrhsMpD9VF+Ovowyne0HeJ0tFuA/CEAAQhAAAIQgAAEykJA4k7u6KOPzpuehKiEnB8Sq+Njjz2WsjpKaJ500kmmobC6t3z58rQ0Fffqq68O7mkIscJKOPj0NJw2KnaHyzNffmmZD3NxzDHHBHc9i3BQDed98MEH7corrwx7N9S5BNmhhx5qs2bNMg3/1rkXhWEQattFixYFQ3E1HHfevHkZQ2kLCRNOM3wu4SiRqbT1Wb9+fer23XffHVz7e8rbi9D777/f7rnnnmAUgO4rnWxO4VU+n4aOjzzySCodxVH+Dz/8cBDmqquustNOOy1bUlX1Q5xWFTeZQQACEIAABCAAAQhUikAxlh9ZF6OCU1ZN+Uso+rQ0FFZOgtef61rDY70IPvvss+UViN3gxP13wQUXBGLXX+s4XJ7PPfdcENTnEc0vnM5w5z6+DyMx6q25l1xyiWnubSO722+/PRjS6xloeK/8ok5DwM8999yUt/qGxL3vF7pRSJhUApETCcfw8GqJZZ+fhKWuvbv44ott7dq1/rKgoyzC4fQV6Rvf+EZgKfZ1uPHGG1P5yIq8evXqgtKuZCDEaSXpkjYEIAABCEAAAhCAQOwIeKuiF5e+gP5aD+861/xNCbtsCwiFh8Z6QRgWFD5Nf8yX57Rp04bNz6eT7yhhLefLEl4QSVbdu+66yzQcuRGd2lVtqSG93h133HEZolP3Fi9e7IMER88zbOEsJExaInsu/HxoWW5zufCQXFk4X3755VxBM/xzpe/z83WYM2dOKq7vz164pm5U+QRxWmXgZAcBCEAAAhCAAAQgUBkCww1pLSVHPeRrWK8sjhKpXviVklYhccqR39NPPx2IXC+Yo/nKYidraqXrEs03DtcaLisnIebnWS5cuDDw8/eCi1H+T/NAV6xYkRqSq2G8jeIQp43S0tQTAhCAAAQgAAEI1DkBCTJZCjVccTjnrWDemunD+mtvQZW/0pTFUekuXbrUBy36WGieI81PQlrzYXGZBL71rW8F8zXD8zB1rv6ie2H3+uuvhy8tmzWykDBpiey5GM5KqXw0vFZzS71bt26dPy3o6NP3ZfaR/LW3oHr/OB0Rp3FqDcoCAQhAAAIQgAAEIDAiAjfccENgGYwOXdVwTj88VwJQc0a1iFHYaaEgLW4kJ6HqxaquX3nllRGtcpsvz5Hmp/iy7qpew22ZozpKaKs8jeS86Dv22GMzqq1hvhKEXrwpgOZshq8vv/zyjJcehYTJyMx56EVFdAEiDafVwkxRYSl/WbujzvflqL+uffreKuzDZKuDvxeXI+I0Li1BOSAAAQhAAAIQgAAERkzAWx6VkF8ISEeJzrBou/766wO/cBhZHcMr2Uq8+vsnnnhiWvxSCpovz2LyCy90pDIqriy8yiPsouFUjzvuuCMcpCHOxUXt7y3Y4UrLT/deFMnEAAADIUlEQVTC7GRN1bUf/qs9Uf2KuT5uIWF82OhRc0qVpk9folTCWWVRuhKWuqcVdKPDerVwklYZ1v1omXw+Sl/p+PR11OJPucL7eKN9TDhTdnK0C0H+EIAABCAAAQhAAAKNRaCnpyeYU9dYta6P2nZ0dFhLS0t9VCZLLbQlkBY7Gk7IFRImS9J45SGA5TQPIG5DAAIQgAAEIAABCEAAAhCAQOUJIE4rz5gcIAABCEAAAhCAAAQgAAEIQCAPAYb15gHEbQhAAAIQgAAEIACB8hNgWG/5mVYrxXof1lstjuSTSQDLaSYTfCAAAQhAAAIQgAAEIAABCECgygQQp1UGTnYQgAAEIAABCEAAAhCAAAQgkEkAcZrJBB8IQAACEIAABCAAAQhAAAIQqDIBxGmVgZMdBCAAAQhAAAIQgAAEIAABCGQSQJxmMsEHAhCAAAQgAAEIQAACEIAABKpMAHFaZeBkBwEIQAACEIAABCAAAQhAAAKZBBCnmUzwgQAEIAABCEAAAhCAAAQgAIEqE0CcVhk42UEAAhCAAAQgAAEIQAACEIBAJgHEaSYTfCAAAQhAAAIQgAAEIAABCECgygQQp1UGTnYQgAAEIAABCEAAAhCAAAQgkEkAcZrJBB8IQAACEIAABCAAAQhAAAIQqDIBxGmVgZMdBCAAAQhAAAIQgAAEIAABCGQSQJxmMsEHAhCAAAQgAAEIQAACEIAABKpMAHFaZeBkBwEIQAACEIAABCAAAQhAAAKZBBCnmUzwgQAEIAABCEAAAhCAAAQgAIEqE0CcVhk42UEAAhCAAAQgAAEIQAACEIBAJgHEaSYTfCAAAQhAAAIQgAAEIAABCECgygQQp1UGTnYQgAAEIAABCEAAAhCAAAQgkEkAcZrJBB8IQAACEIAABCAAAQhAAAIQqDIBxGmVgZMdBCAAAQhAAAIQgAAEIAABCGQSQJxmMsEHAhCAAAQgAAEIQAACEIAABKpMAHFaZeBkBwEIQAACEIAABCAAAQhAAAKZBBJJ5zK98YEABCAAAQhAAAIQgEDlCAwMDFQucVKuKIFEImH64CBQbgL/P3l3FOYgmQBEAAAAAElFTkSuQmCC;imageBorder=#000000;imageBackground=#E1D5E7;" vertex="1" parent="1">
          <mxGeometry width="935" height="519" as="geometry" />
        </mxCell>
        <mxCell id="ta3PRd_e8hcslhCjti0d-2" value="Data-Sci-Toolbox" style="text;html=1;align=center;verticalAlign=middle;resizable=0;points=[];autosize=1;fillColor=#dae8fc;strokeColor=#6c8ebf;rounded=0;shadow=1;fontStyle=1" vertex="1" parent="1">
          <mxGeometry x="265" y="-30" width="110" height="20" as="geometry" />
        </mxCell>
        <mxCell id="ta3PRd_e8hcslhCjti0d-3" value="" style="html=1;aspect=fixed;strokeColor=none;shadow=0;align=center;verticalAlign=top;fillColor=#3B8DF1;shape=mxgraph.gcp2.files;rounded=0;" vertex="1" parent="1">
          <mxGeometry x="-200" y="220" width="100" height="97" as="geometry" />
        </mxCell>
        <mxCell id="ta3PRd_e8hcslhCjti0d-4" value="" style="endArrow=classic;html=1;" edge="1" parent="1">
          <mxGeometry width="50" height="50" relative="1" as="geometry">
            <mxPoint x="-100" y="280" as="sourcePoint" />
            <mxPoint x="-2" y="280" as="targetPoint" />
          </mxGeometry>
        </mxCell>
        <mxCell id="ta3PRd_e8hcslhCjti0d-5" value="Ingestion Sources" style="text;html=1;strokeColor=#6c8ebf;fillColor=#dae8fc;align=center;verticalAlign=middle;whiteSpace=wrap;rounded=0;shadow=1;fontStyle=1" vertex="1" parent="1">
          <mxGeometry x="-185" y="330" width="70" height="30" as="geometry" />
        </mxCell>
        <mxCell id="ta3PRd_e8hcslhCjti0d-6" value="" style="aspect=fixed;html=1;points=[];align=center;image;fontSize=12;image=img/lib/mscae/Shared_Dashboard.svg;rounded=0;shadow=1;fillColor=#ffffff;" vertex="1" parent="1">
          <mxGeometry x="997.27" y="242" width="70.73" height="58" as="geometry" />
        </mxCell>
        <mxCell id="ta3PRd_e8hcslhCjti0d-7" value="" style="pointerEvents=1;shadow=0;dashed=0;html=1;strokeColor=none;labelPosition=center;verticalLabelPosition=bottom;verticalAlign=top;align=center;fillColor=#505050;shape=mxgraph.mscae.intune.dashboard;rounded=0;" vertex="1" parent="1">
          <mxGeometry x="997" y="70" width="71" height="64" as="geometry" />
        </mxCell>
        <mxCell id="ta3PRd_e8hcslhCjti0d-8" value="" style="endArrow=classic;html=1;entryX=0;entryY=0.5;entryDx=0;entryDy=0;entryPerimeter=0;exitX=1.002;exitY=0.197;exitDx=0;exitDy=0;exitPerimeter=0;" edge="1" parent="1" source="ta3PRd_e8hcslhCjti0d-1" target="ta3PRd_e8hcslhCjti0d-7">
          <mxGeometry width="50" height="50" relative="1" as="geometry">
            <mxPoint x="932" y="149" as="sourcePoint" />
            <mxPoint x="982" y="99" as="targetPoint" />
          </mxGeometry>
        </mxCell>
        <mxCell id="ta3PRd_e8hcslhCjti0d-9" value="" style="endArrow=classic;html=1;entryX=0;entryY=0.5;entryDx=0;entryDy=0;entryPerimeter=0;exitX=1.002;exitY=0.197;exitDx=0;exitDy=0;exitPerimeter=0;" edge="1" parent="1">
          <mxGeometry width="50" height="50" relative="1" as="geometry">
            <mxPoint x="937.1399999999999" y="268.24299999999994" as="sourcePoint" />
            <mxPoint x="997.27" y="268" as="targetPoint" />
          </mxGeometry>
        </mxCell>
        <mxCell id="ta3PRd_e8hcslhCjti0d-10" value="OPS Metrics" style="text;html=1;strokeColor=#6c8ebf;fillColor=#dae8fc;align=center;verticalAlign=middle;whiteSpace=wrap;rounded=0;shadow=1;fontStyle=1" vertex="1" parent="1">
          <mxGeometry x="1003.63" y="147" width="58" height="36" as="geometry" />
        </mxCell>
        <mxCell id="ta3PRd_e8hcslhCjti0d-12" value="Business Metrics" style="text;html=1;strokeColor=#6c8ebf;fillColor=#dae8fc;align=center;verticalAlign=middle;whiteSpace=wrap;rounded=0;shadow=1;fontStyle=1" vertex="1" parent="1">
          <mxGeometry x="1003.63" y="317" width="58" height="37" as="geometry" />
        </mxCell>
        <mxCell id="ta3PRd_e8hcslhCjti0d-13" value="Global TF Folder" style="whiteSpace=wrap;html=1;aspect=fixed;rounded=0;shadow=1;fillColor=#f5f5f5;strokeColor=#666666;fontColor=#333333;fontStyle=1" vertex="1" parent="1">
          <mxGeometry y="656" width="127" height="127" as="geometry" />
        </mxCell>
        <mxCell id="ta3PRd_e8hcslhCjti0d-14" value="Azure Data Factory" style="shape=parallelogram;perimeter=parallelogramPerimeter;whiteSpace=wrap;html=1;fixedSize=1;rounded=0;shadow=1;fillColor=#fff2cc;strokeColor=#d6b656;" vertex="1" parent="1">
          <mxGeometry x="222" y="626" width="103" height="43" as="geometry" />
        </mxCell>
        <mxCell id="ta3PRd_e8hcslhCjti0d-21" value="Azure Data &lt;br&gt;lake Gen2" style="shape=parallelogram;perimeter=parallelogramPerimeter;whiteSpace=wrap;html=1;fixedSize=1;rounded=0;shadow=1;fillColor=#fff2cc;strokeColor=#d6b656;" vertex="1" parent="1">
          <mxGeometry x="225" y="669" width="103" height="43" as="geometry" />
        </mxCell>
        <mxCell id="ta3PRd_e8hcslhCjti0d-22" value="Azure Data &lt;br&gt;Bricks" style="shape=parallelogram;perimeter=parallelogramPerimeter;whiteSpace=wrap;html=1;fixedSize=1;rounded=0;shadow=1;fillColor=#fff2cc;strokeColor=#d6b656;" vertex="1" parent="1">
          <mxGeometry x="225" y="714" width="103" height="43" as="geometry" />
        </mxCell>
        <mxCell id="ta3PRd_e8hcslhCjti0d-23" value="Azure DB" style="shape=parallelogram;perimeter=parallelogramPerimeter;whiteSpace=wrap;html=1;fixedSize=1;rounded=0;shadow=1;fillColor=#fff2cc;strokeColor=#d6b656;" vertex="1" parent="1">
          <mxGeometry x="225" y="757" width="103" height="38" as="geometry" />
        </mxCell>
        <mxCell id="ta3PRd_e8hcslhCjti0d-24" value="Azure Monitor" style="shape=parallelogram;perimeter=parallelogramPerimeter;whiteSpace=wrap;html=1;fixedSize=1;rounded=0;shadow=1;fillColor=#fff2cc;strokeColor=#d6b656;" vertex="1" parent="1">
          <mxGeometry x="225" y="795" width="103" height="38" as="geometry" />
        </mxCell>
        <mxCell id="ta3PRd_e8hcslhCjti0d-25" value="Azure Synapse" style="shape=parallelogram;perimeter=parallelogramPerimeter;whiteSpace=wrap;html=1;fixedSize=1;rounded=0;shadow=1;fillColor=#fff2cc;strokeColor=#d6b656;" vertex="1" parent="1">
          <mxGeometry x="229" y="835" width="103" height="36" as="geometry" />
        </mxCell>
        <mxCell id="ta3PRd_e8hcslhCjti0d-26" value="" style="shape=flexArrow;endArrow=classic;html=1;exitX=1;exitY=0.5;exitDx=0;exitDy=0;" edge="1" parent="1" source="ta3PRd_e8hcslhCjti0d-13">
          <mxGeometry width="50" height="50" relative="1" as="geometry">
            <mxPoint x="143" y="764" as="sourcePoint" />
            <mxPoint x="219" y="720" as="targetPoint" />
          </mxGeometry>
        </mxCell>
        <mxCell id="ta3PRd_e8hcslhCjti0d-27" value="New Provisioning Request" style="rounded=0;whiteSpace=wrap;html=1;shadow=1;fillColor=#f5f5f5;strokeColor=#666666;fontColor=#333333;" vertex="1" parent="1">
          <mxGeometry x="-189" y="689.5" width="120" height="60" as="geometry" />
        </mxCell>
        <mxCell id="ta3PRd_e8hcslhCjti0d-28" value="" style="endArrow=classic;html=1;exitX=1;exitY=0.5;exitDx=0;exitDy=0;entryX=0;entryY=0.5;entryDx=0;entryDy=0;" edge="1" parent="1" source="ta3PRd_e8hcslhCjti0d-27" target="ta3PRd_e8hcslhCjti0d-13">
          <mxGeometry width="50" height="50" relative="1" as="geometry">
            <mxPoint x="-56" y="751" as="sourcePoint" />
            <mxPoint x="1" y="714" as="targetPoint" />
          </mxGeometry>
        </mxCell>
        <mxCell id="ta3PRd_e8hcslhCjti0d-30" value="" style="shape=parallelogram;perimeter=parallelogramPerimeter;whiteSpace=wrap;html=1;fixedSize=1;rounded=0;shadow=1;fillColor=#FF0000;" vertex="1" parent="1">
          <mxGeometry x="435" y="671" width="93" height="47" as="geometry" />
        </mxCell>
        <mxCell id="ta3PRd_e8hcslhCjti0d-32" value="" style="shape=parallelogram;perimeter=parallelogramPerimeter;whiteSpace=wrap;html=1;fixedSize=1;rounded=0;shadow=1;fillColor=#FF0000;" vertex="1" parent="1">
          <mxGeometry x="445" y="681" width="93" height="47" as="geometry" />
        </mxCell>
        <mxCell id="ta3PRd_e8hcslhCjti0d-33" value="" style="shape=parallelogram;perimeter=parallelogramPerimeter;whiteSpace=wrap;html=1;fixedSize=1;rounded=0;shadow=1;fillColor=#FF0000;" vertex="1" parent="1">
          <mxGeometry x="455" y="691" width="93" height="47" as="geometry" />
        </mxCell>
        <mxCell id="ta3PRd_e8hcslhCjti0d-34" value="" style="shape=parallelogram;perimeter=parallelogramPerimeter;whiteSpace=wrap;html=1;fixedSize=1;rounded=0;shadow=1;fillColor=#FF0000;" vertex="1" parent="1">
          <mxGeometry x="465" y="701" width="93" height="47" as="geometry" />
        </mxCell>
        <mxCell id="ta3PRd_e8hcslhCjti0d-35" value="" style="shape=parallelogram;perimeter=parallelogramPerimeter;whiteSpace=wrap;html=1;fixedSize=1;rounded=0;shadow=1;fillColor=#FF0000;" vertex="1" parent="1">
          <mxGeometry x="475" y="711" width="93" height="47" as="geometry" />
        </mxCell>
        <mxCell id="ta3PRd_e8hcslhCjti0d-36" value="{.....}" style="shape=parallelogram;perimeter=parallelogramPerimeter;whiteSpace=wrap;html=1;fixedSize=1;rounded=0;shadow=1;fillColor=#FF0000;" vertex="1" parent="1">
          <mxGeometry x="485" y="721" width="93" height="47" as="geometry" />
        </mxCell>
        <mxCell id="ta3PRd_e8hcslhCjti0d-37" value="" style="shape=flexArrow;endArrow=classic;html=1;exitX=1;exitY=0.5;exitDx=0;exitDy=0;" edge="1" parent="1">
          <mxGeometry width="50" height="50" relative="1" as="geometry">
            <mxPoint x="338" y="721" as="sourcePoint" />
            <mxPoint x="430" y="721.5" as="targetPoint" />
          </mxGeometry>
        </mxCell>
        <mxCell id="ta3PRd_e8hcslhCjti0d-38" value="" style="verticalLabelPosition=bottom;shadow=0;dashed=0;align=center;html=1;verticalAlign=top;strokeWidth=1;shape=mxgraph.mockup.markup.curlyBrace;strokeColor=#999999;rounded=0;fillColor=#FF0000;direction=west;" vertex="1" parent="1">
          <mxGeometry x="226.5" y="911" width="100" height="20" as="geometry" />
        </mxCell>
        <mxCell id="ta3PRd_e8hcslhCjti0d-39" value="" style="verticalLabelPosition=bottom;shadow=0;dashed=0;align=center;html=1;verticalAlign=top;strokeWidth=1;shape=mxgraph.mockup.markup.curlyBrace;strokeColor=#999999;rounded=0;fillColor=#FF0000;direction=west;" vertex="1" parent="1">
          <mxGeometry x="471.5" y="911" width="100" height="20" as="geometry" />
        </mxCell>
        <mxCell id="ta3PRd_e8hcslhCjti0d-40" value="" style="verticalLabelPosition=bottom;shadow=0;dashed=0;align=center;html=1;verticalAlign=top;strokeWidth=1;shape=mxgraph.mockup.markup.curlyBrace;strokeColor=#999999;rounded=0;fillColor=#FF0000;direction=west;" vertex="1" parent="1">
          <mxGeometry x="-179" y="911" width="100" height="20" as="geometry" />
        </mxCell>
        <mxCell id="ta3PRd_e8hcslhCjti0d-42" value="Modules Stack" style="text;html=1;strokeColor=none;fillColor=none;align=center;verticalAlign=middle;whiteSpace=wrap;rounded=0;shadow=1;" vertex="1" parent="1">
          <mxGeometry x="257" y="950" width="40" height="20" as="geometry" />
        </mxCell>
        <mxCell id="ta3PRd_e8hcslhCjti0d-43" value="Alert Stack" style="text;html=1;strokeColor=none;fillColor=none;align=center;verticalAlign=middle;whiteSpace=wrap;rounded=0;shadow=1;" vertex="1" parent="1">
          <mxGeometry x="508" y="950" width="40" height="20" as="geometry" />
        </mxCell>
        <mxCell id="ta3PRd_e8hcslhCjti0d-44" value="Request Stack yml" style="text;html=1;strokeColor=none;fillColor=none;align=center;verticalAlign=middle;whiteSpace=wrap;rounded=0;shadow=1;" vertex="1" parent="1">
          <mxGeometry x="-149" y="950" width="40" height="20" as="geometry" />
        </mxCell>
        <mxCell id="ta3PRd_e8hcslhCjti0d-46" value="Future API endpoints for common consumption" style="rhombus;whiteSpace=wrap;html=1;rounded=0;shadow=1;fillColor=none;" vertex="1" parent="1">
          <mxGeometry x="711.5" y="982" width="87" height="204" as="geometry" />
        </mxCell>
        <mxCell id="ta3PRd_e8hcslhCjti0d-47" value="Provisioning Output" style="rounded=1;whiteSpace=wrap;html=1;shadow=1;fillColor=#ffe6cc;strokeColor=#d79b00;" vertex="1" parent="1">
          <mxGeometry x="678" y="688" width="120" height="60" as="geometry" />
        </mxCell>
        <mxCell id="ta3PRd_e8hcslhCjti0d-48" value="" style="verticalLabelPosition=bottom;shadow=0;dashed=0;align=center;html=1;verticalAlign=top;strokeWidth=1;shape=mxgraph.mockup.markup.curlyBrace;strokeColor=#999999;rounded=0;fillColor=#FF0000;direction=west;" vertex="1" parent="1">
          <mxGeometry x="705" y="911" width="100" height="20" as="geometry" />
        </mxCell>
        <mxCell id="ta3PRd_e8hcslhCjti0d-49" value="Future API endpoints" style="rhombus;whiteSpace=wrap;html=1;rounded=0;shadow=1;fillColor=none;" vertex="1" parent="1">
          <mxGeometry x="-172" y="1003" width="80" height="80" as="geometry" />
        </mxCell>
        <mxCell id="ta3PRd_e8hcslhCjti0d-50" value="" style="shape=flexArrow;endArrow=classic;html=1;exitX=1;exitY=0.5;exitDx=0;exitDy=0;" edge="1" parent="1">
          <mxGeometry width="50" height="50" relative="1" as="geometry">
            <mxPoint x="581" y="721" as="sourcePoint" />
            <mxPoint x="673" y="721.5" as="targetPoint" />
          </mxGeometry>
        </mxCell>
        <mxCell id="ta3PRd_e8hcslhCjti0d-51" value="Output Stack yml" style="text;html=1;strokeColor=none;fillColor=none;align=center;verticalAlign=middle;whiteSpace=wrap;rounded=0;shadow=1;" vertex="1" parent="1">
          <mxGeometry x="735" y="950" width="40" height="20" as="geometry" />
        </mxCell>
        <mxCell id="ta3PRd_e8hcslhCjti0d-53" value="" style="verticalLabelPosition=bottom;shadow=0;dashed=0;align=center;html=1;verticalAlign=top;strokeWidth=1;shape=mxgraph.mockup.markup.curlyBrace;strokeColor=#999999;rounded=0;fillColor=#FF0000;direction=west;" vertex="1" parent="1">
          <mxGeometry x="24" y="909" width="100" height="20" as="geometry" />
        </mxCell>
        <mxCell id="ta3PRd_e8hcslhCjti0d-54" value="Input Stack yml" style="text;html=1;strokeColor=none;fillColor=none;align=center;verticalAlign=middle;whiteSpace=wrap;rounded=0;shadow=1;" vertex="1" parent="1">
          <mxGeometry x="54" y="950" width="40" height="20" as="geometry" />
        </mxCell>
        <mxCell id="ta3PRd_e8hcslhCjti0d-56" value="&lt;h1&gt;TF Module Flow&lt;/h1&gt;&lt;p&gt;TF global section calls upon all other modules depending on the input request yml&lt;/p&gt;" style="text;html=1;strokeColor=none;fillColor=none;spacing=5;spacingTop=-20;whiteSpace=wrap;overflow=hidden;rounded=0;shadow=1;" vertex="1" parent="1">
          <mxGeometry x="-292" y="542" width="190" height="120" as="geometry" />
        </mxCell>
        <mxCell id="ta3PRd_e8hcslhCjti0d-58" value="&lt;h1&gt;Functional Flow&lt;/h1&gt;&lt;p&gt;Ingestion pipeline overview&lt;/p&gt;" style="text;html=1;strokeColor=none;fillColor=none;spacing=5;spacingTop=-20;whiteSpace=wrap;overflow=hidden;rounded=0;shadow=1;" vertex="1" parent="1">
          <mxGeometry x="-231" y="-168" width="190" height="120" as="geometry" />
        </mxCell>
      </root>
    </mxGraphModel>
  </diagram>
</mxfile>
